<svg width="856" height="735" viewBox="0 0 856 735" fill="none" xmlns="http://www.w3.org/2000/svg">
<path d="M571.597 202.332C571.472 202.354 571.285 202.386 571.057 202.423C566.605 203.16 539.691 207.313 512.556 196.976C501.061 192.597 504.982 191.506 479.38 176.282C449.364 158.433 441.661 158.558 439.426 150.235C434.963 133.617 458.795 107.492 474.57 109.212C478.723 109.665 483.17 112.141 490.088 110.462C491.608 110.093 498.261 108.479 501.505 102.972C504.398 98.0586 501.948 94.5147 503.111 90.4854C506.166 79.9092 531.627 74.6311 553.949 78.3603C566.788 80.5053 576.774 86.3611 596.222 97.9852C630.072 118.217 646.997 128.333 650.801 143.832C654.406 158.522 645.753 164.852 652.046 180.578C657.907 195.22 667.214 194.242 670.417 206.087C675.571 225.148 656.441 246.067 648.473 254.781C639.736 264.335 631.38 269.579 620.287 276.541C606.364 285.278 599.403 289.647 591.033 289.203C575.858 288.397 530.766 291.14 530.178 278.582C529.957 273.876 475.268 277.73 502.197 227.062C505.5 220.848 570.206 227.486 571.061 223.916" fill="#2F2E41"/>
<path d="M597.787 234.755L644.299 304.133L510.787 331.133L519.291 244.274L597.787 234.755Z" fill="#FFB6B6"/>
<path opacity="0.1" d="M597.787 234.755L644.299 304.133L510.787 331.133L519.291 244.274L597.787 234.755Z" fill="black"/>
<path d="M500.787 286.133L644.787 280.133L708.787 315.133L705.787 540.133L772.787 667.133L434.787 603.133L460.787 507.133L448.787 305.133L500.787 286.133Z" fill="#6C63FF"/>
<path d="M3.87807 723.236C-0.719225 715.989 -1.26216 707.035 2.42602 699.285L57.2329 584.129C61.3233 575.535 70.1166 569.982 79.6346 569.982H771.889C781.142 569.982 789.56 575.072 793.858 583.266L852.604 695.248C856.664 702.989 856.397 712.08 851.889 719.569C847.381 727.058 839.472 731.549 830.732 731.583L24.9251 734.755H24.8243C16.2819 734.755 8.45672 730.454 3.87807 723.236Z" fill="#FA28A6"/>
<path d="M3.87807 723.236C-0.719225 715.989 -1.26216 707.035 2.42602 699.285L57.2329 584.129C61.3233 575.535 70.1166 569.982 79.6346 569.982H771.889C781.142 569.982 789.56 575.072 793.858 583.266L852.604 695.248C856.664 702.989 856.397 712.08 851.889 719.569C847.381 727.058 839.472 731.549 830.732 731.583L24.9251 734.755H24.8243C16.2819 734.755 8.45672 730.454 3.87807 723.236ZM79.6346 572.586C71.1155 572.586 63.2454 577.556 59.5844 585.248L4.77744 700.404C1.47622 707.34 1.96193 715.354 6.07691 721.841C10.1754 728.302 17.1783 732.151 24.8247 732.151H24.915L830.722 728.979C838.544 728.949 845.623 724.928 849.658 718.226C853.693 711.523 853.932 703.386 850.298 696.459L791.552 584.475C787.705 577.142 780.171 572.586 771.889 572.586H79.6346Z" fill="#3F3D56"/>
<path d="M707.438 690.732L421.764 671.092C417.546 670.802 414.182 667.958 413.195 663.848C412.206 659.737 413.91 655.676 417.535 653.501L480.706 615.598C482.31 614.635 484.15 614.167 486.015 614.257L733.121 625.489C736.388 625.637 739.306 627.421 740.927 630.262C742.548 633.101 742.599 636.521 741.065 639.409L716.463 685.721C714.811 688.829 711.574 690.755 708.089 690.755C707.873 690.755 707.656 690.747 707.438 690.732Z" fill="#3F3D56"/>
<path d="M419.287 659.633L703.787 679.133L726.287 630.633L482.34 621.066L419.287 659.633Z" fill="#222222"/>
<path d="M559.287 258.125C606.503 258.125 644.779 219.849 644.779 172.633C644.779 125.417 606.503 87.1409 559.287 87.1409C512.071 87.1409 473.795 125.417 473.795 172.633C473.795 219.849 512.071 258.125 559.287 258.125Z" fill="#FFB6B6"/>
<path d="M586.823 178.165C586.698 178.187 586.51 178.218 586.283 178.256C581.831 178.993 554.917 183.146 527.782 172.809C516.286 168.43 520.208 167.339 494.606 152.115C464.59 134.266 456.887 134.391 454.652 126.068C450.189 109.45 474.021 83.3251 489.795 85.0452C493.948 85.4981 498.396 87.974 505.314 86.2952C506.834 85.9263 513.487 84.3117 516.731 78.8044C519.624 73.8915 517.173 70.3476 518.337 66.3183C521.391 55.7421 546.852 50.4639 569.175 54.1932C582.014 56.3382 592 62.194 611.448 73.8181C645.298 94.0502 662.223 104.166 666.027 119.665C669.632 134.355 660.979 140.685 667.272 156.41C673.132 171.053 682.44 170.075 685.643 181.92C690.797 200.98 671.667 221.9 663.698 230.614C654.961 240.168 646.606 245.412 635.513 252.373C621.59 261.111 614.628 265.48 606.259 265.035C591.084 264.23 575.99 250.477 575.402 237.92C575.182 233.214 577.145 231.802 582.004 215.624C584.028 208.883 585.432 203.319 586.286 199.749" fill="#2F2E41"/>
<path d="M645.42 636.21C650.92 636.428 655.105 641.356 655.409 646.695C655.724 652.237 651.87 657.342 647.241 659.98C641.819 663.071 635.05 663.567 628.944 663.035C623.451 662.557 617.476 660.848 613.941 656.313C610.968 652.497 609.873 646.731 612.403 642.4C614.91 638.105 620.244 636.919 624.704 638.642C629.426 640.466 632.394 644.76 632.424 649.834C632.457 655.458 629.209 660.655 624.65 663.765C619.734 667.119 613.546 668.197 607.695 668.184C601.319 668.169 594.97 666.831 589.105 664.346C583.609 662.018 578.118 658.66 574.189 654.099C570.505 649.822 568.3 643.888 570.345 638.34C572.022 633.791 576.259 631.002 581.111 631.387C585.554 631.74 590.048 634.318 592.02 638.423C594.245 643.054 593.245 648.611 590.414 652.752C587.145 657.533 581.977 660.22 576.239 660.608C570.131 661.022 564.083 658.851 559.059 655.496C554.407 652.39 550.318 648.413 545.323 645.828C542.92 644.585 540.304 643.794 537.583 643.797C534.117 643.802 530.786 644.94 527.416 645.6C524.559 646.16 521.615 646.486 518.797 645.573C516.384 644.792 514.127 643.36 512.608 641.307C511.17 639.365 510.666 636.932 511.48 634.627C512.119 632.818 515.018 633.597 514.373 635.424C512.884 639.64 517.991 642.738 521.566 643.125C524.279 643.419 527.077 642.635 529.693 642.023C532.42 641.385 535.209 640.733 538.028 640.802C548.018 641.048 554.621 649.587 562.675 654.219C571.143 659.09 583.543 659.429 588.728 649.751C590.611 646.235 591 641.563 588.413 638.278C586.258 635.542 582.429 633.905 578.958 634.436C574.6 635.101 572.429 639.252 572.588 643.379C572.781 648.43 576.301 652.533 580.056 655.558C588.412 662.291 599.494 665.721 610.183 665.119C615.198 664.836 620.528 663.531 624.423 660.192C627.789 657.307 630.087 652.615 629.278 648.121C628.578 644.232 625.317 641.282 621.375 640.89C617.343 640.49 614.193 643.352 614.013 647.38C613.81 651.91 616.502 655.69 620.402 657.753C624.82 660.09 630.173 660.38 635.069 660.125C640.267 659.855 645.684 658.485 649.321 654.527C652.424 651.151 653.6 646.141 650.741 642.235C649.479 640.511 647.581 639.296 645.42 639.21C643.496 639.134 643.486 636.134 645.42 636.21Z" fill="#6C63FF"/>
<path d="M508.692 632.997L510.221 623.539L595.095 461.32C596.501 458.633 599.831 457.591 602.518 458.996C605.205 460.402 606.247 463.733 604.842 466.419L520.005 628.567L513.07 635.287C512.249 636.078 511.066 636.248 510.056 635.719C509.046 635.191 508.511 634.122 508.692 632.997Z" fill="#3F3D56"/>
<path d="M566.545 529.79C576.121 531.592 585.125 535.662 592.805 541.658L593.237 541.751L593.325 541.321L685.827 555.809L679.125 432.773L749.23 394.376L732.66 602.349C729.071 615.631 715.287 623.388 702.072 619.563L584.321 585.693L584.615 584.244L584.203 584.134C574.793 586.672 564.911 586.919 555.385 584.854C531.489 580.018 514.613 563.768 517.694 548.56C520.774 533.353 542.64 524.949 566.545 529.79Z" fill="#FFB6B6"/>
<path d="M629.787 337.133L708.787 315.133C708.787 315.133 750.287 345.633 755.287 378.633C755.882 382.557 757.531 565.379 755.787 570.133C742.865 605.352 671.787 549.133 671.787 549.133L629.787 337.133Z" fill="#6C63FF"/>
<path d="M287.122 665.722L278.932 658.702C277.713 657.656 276.23 656.964 274.645 656.699L92.1619 626.285C87.9969 625.591 84.9202 622.583 84.1322 618.434C83.3446 614.286 85.1043 610.359 88.7254 608.186L153.827 569.126C156.003 567.82 158.563 567.409 161.04 567.969L392.414 620.242C396.912 621.258 399.914 624.892 400.061 629.502C400.209 634.111 397.445 637.931 393.02 639.232L296.28 667.685C295.362 667.956 294.426 668.088 293.497 668.088C291.188 668.088 288.929 667.27 287.122 665.722Z" fill="#3F3D56"/>
<path d="M199.243 438.882C208.288 442.505 216.334 448.241 222.708 455.61L223.114 455.785L223.283 455.38L311.23 487.502L405.133 335.46L457.045 367.634L348.167 542.229C342.075 554.564 327.05 559.506 314.825 553.195L205.859 497.17L206.428 495.805L206.046 495.617C196.322 496.285 186.579 494.614 177.634 490.744C155.125 481.373 141.715 462.164 147.682 447.84C153.648 433.517 176.727 429.505 199.243 438.882Z" fill="#FFB6B6"/>
<path d="M505.866 362.909L464.332 300.799C464.332 300.799 414.908 310.582 394.548 337.029C392.003 340.335 304.585 467.119 304.022 472.652C300.079 511.383 400.551 529.53 400.551 529.53L505.866 362.909Z" fill="#6C63FF"/>
<path d="M282.602 667.588L73.4207 638.676C66.4197 637.709 60.6414 632.692 58.699 625.896L10.6556 457.744C9.02765 452.045 10.243 446.143 13.9901 441.552C17.7371 436.96 23.2733 434.587 29.1849 435.038L239.935 451.184C247.56 451.768 253.96 457.138 255.863 464.544L302.337 645.462C303.82 651.235 302.337 657.338 298.369 661.786C294.953 665.617 290.108 667.757 285.058 667.757C284.243 667.757 283.423 667.701 282.602 667.588Z" fill="#3F3D56"/>
<path d="M235.976 323.166C237.198 324.511 241.635 323.14 250.46 320.345C257.167 318.22 258.201 317.447 258.839 316.893C261.082 314.944 261.67 312.894 263.892 303.84C267.879 287.59 268.003 285.976 270.051 282.528C270.756 281.34 272.537 278.508 272.103 278.157C271.656 277.796 269.728 280.747 266.166 281.862C262.693 282.948 261.13 281.208 258.166 281.651C254.334 282.224 252.055 285.864 248.481 291.756C245.317 296.974 244.918 299.073 240.481 309.44C239.224 312.376 238.212 314.649 237.435 316.446C228.723 324.577 220.083 332.815 211.52 341.125C211.686 340.873 211.841 340.635 211.976 340.428C215.768 334.605 216.283 331.483 216.228 329.144C216.139 325.354 214.329 322.468 210.713 316.849C207.169 311.344 203.812 307.711 199.766 303.375C194.463 297.693 191.812 294.852 190.756 295.039C183.214 296.373 181.197 347.726 190.686 356.91C189.355 357.861 188.252 358.858 187.454 359.838C179.331 350.82 165.416 340.744 150.002 339.503C140.499 338.738 135.254 341.721 133.623 342.745C126.086 347.479 121.604 356.955 123.855 359.629C125.954 362.122 132.016 356.454 143.896 356.766C152.186 356.984 158.662 359.991 162.507 361.777C170.571 365.523 173.521 369.205 179.467 371.728C176.68 374.024 174.471 376.891 173.084 379.565C172.604 380.06 172.125 380.558 171.645 381.054C165.51 377.596 158.601 375.06 151.359 374.477C141.856 373.712 136.611 376.694 134.98 377.719C129.9 380.909 126.219 386.248 125.041 390.213C124.271 390.367 123.558 390.544 122.906 390.735C120.603 385.53 113.749 380.042 107.377 377.276C96.4082 372.514 82.1596 373.776 80.635 378.304C80.5864 378.448 80.5742 378.591 80.5527 378.733C81.7551 369.032 83.3877 359.398 85.4275 349.834C85.4966 350.107 85.5835 350.383 85.6992 350.674C88.407 357.475 95.7239 364.003 105.697 367.389C113.525 370.047 116.804 368.67 117.637 368.285C118.433 367.917 121.869 366.442 122.711 363.509C124.272 358.071 114.712 342 108.682 347.391C89.3081 364.71 86.6494 350.686 85.7595 348.325C87.4067 340.764 89.3027 333.247 91.4292 325.772C91.4658 325.818 91.4975 325.862 91.5356 325.909C95.7685 331.042 103.915 334.659 113.487 334.818C121 334.944 123.455 332.841 124.069 332.276C124.656 331.737 127.22 329.506 127.134 326.733C126.974 321.593 117.83 317.407 110.514 316.681C103.773 316.012 96.5132 318.077 92.9121 320.69C94.5864 315.093 96.3874 309.519 98.3086 303.97C103.229 305.98 110.198 305.71 117.045 302.649C122.691 300.125 123.789 297.702 124.05 297.067C124.299 296.461 125.434 293.903 124.404 291.866C122.495 288.089 114.218 288.153 108.51 290.16C106.159 290.987 103.924 292.259 102.009 293.697C105.414 284.602 109.125 275.571 113.116 266.607L109.116 265.607C104.018 277.058 99.5723 288.658 95.7519 300.387C95.2768 296.947 94.0864 293.283 92.519 290.306C87.9101 281.552 78.0659 274.985 74.7368 277.115C74.0708 277.542 73.7905 278.236 73.5371 279.062C71.4963 285.712 73.0332 294.903 78.4077 303.346C82.6257 309.974 85.8745 310.904 86.7207 311.114C87.4353 311.292 90.1938 312.054 92.4612 311.073C90.9363 316.298 89.5264 321.545 88.2407 326.817C86.6936 322.975 83.6448 318.883 80.4204 316.052C72.9851 309.527 61.4429 306.915 59.0962 310.096C58.6269 310.732 58.6135 311.48 58.6723 312.343C59.1455 319.283 63.8682 327.315 71.9072 333.278C78.217 337.958 81.5835 337.665 82.449 337.558C82.9585 337.496 84.498 337.343 85.9824 336.671C84.6045 343.076 83.4001 349.512 82.3591 355.975C80.2771 348.745 73.2046 339.725 66.5298 342.595C54.6853 347.687 40.7622 339.865 39.2297 343.285C38.831 344.175 39.1611 345.093 39.5427 346.089C42.6113 354.101 51.0864 361.865 62.7234 365.987C71.8567 369.223 75.7207 367.659 76.7026 367.221C77.3535 366.93 79.5012 366.033 81.1011 364.368C79.9509 372.672 79.0693 381.019 78.4485 389.402C75.979 384.01 69.0232 378.329 62.5115 375.4C51.0891 370.263 36.1496 371.388 34.4905 376.109C34.1587 377.054 34.4204 377.965 34.8117 378.987C37.9616 387.211 46.6601 395.179 58.6045 399.41C67.979 402.731 71.9448 401.126 72.9529 400.676C73.6892 400.348 76.29 399.261 77.9485 397.198C77.7361 401.073 77.572 404.955 77.4682 408.844C77.4387 409.952 77.4214 411.06 77.3999 412.167C77.2654 412.385 77.1479 412.608 77.0698 412.84C76.7497 413.791 76.9675 414.705 77.3432 415.704C77.3349 416.407 77.3306 417.11 77.3259 417.814C75.2361 415.92 72.7432 413.071 69.7446 409.012C67.0391 405.35 64.4697 408.037 62.8193 411.155C60.2319 410.579 57.7639 410.936 55.823 412.749C42.8071 424.908 28.2085 418.457 28.0019 422.082C27.9424 423.128 28.5027 423.96 29.209 424.863C34.8921 432.123 46.0488 437.419 59.3032 437.977C69.7058 438.415 73.1802 435.588 74.0503 434.828C74.356 434.561 75.041 433.984 75.783 433.173C76.3787 433.649 76.9585 434.08 77.54 434.474C77.7688 441.434 78.1782 448.386 78.7852 455.326C78.2917 455.37 77.8198 455.451 77.4683 455.487C72.4295 456 70.7317 449.202 63.1199 446.718C60.5921 445.894 55.7222 444.994 53.1558 446.718C52.7861 446.967 51.5251 447.901 49.5686 448.711C48.4121 449.19 47.5286 449.412 47.1772 449.508C44.0542 450.363 41.1616 452.707 39.2061 454.291C35.5298 457.27 33.6919 458.76 32.8289 461.465C32.5574 462.317 31.7935 464.712 32.8289 467.045C33.3181 468.148 34.4536 469.787 38.8074 471.43C41.395 472.406 48.9424 475.252 57.9385 472.227C59.9871 471.538 58.4233 471.784 66.3083 467.842C72.512 464.741 76.1401 463.258 76.6711 460.27C76.8579 459.219 76.6697 457.938 77.4683 457.48C77.9121 457.225 78.4487 457.349 78.9844 457.542C79.5063 463.121 80.1582 468.691 80.9482 474.249H73.8496C64.4238 474.249 55.9678 479.495 51.7822 487.941L25.2299 541.508C23.5536 544.889 22.6674 548.672 22.6674 552.446V690.189C22.6674 703.77 33.7163 714.819 47.2974 714.819H109.274C122.855 714.819 133.904 703.77 133.904 690.189V563.354C133.904 560.262 133.332 557.235 132.202 554.356L106.896 489.881C103.827 482.061 97.1792 476.53 89.2329 474.817C91.7817 471.796 94.3345 468.777 96.9072 465.767C100.146 467.33 103.71 468.613 107.541 469.514C117.677 471.897 121.62 469.772 122.618 469.189C123.57 468.631 127.7 466.365 128.4 462.586C128.475 462.181 128.504 461.772 128.498 461.359C138.881 469.799 144.296 473.959 148.253 472.572C151.655 471.379 153.597 467.471 154.709 463.965C155.871 464.126 157.103 464.291 158.415 464.466C172.635 466.365 179.8 467.245 182.541 463.877C186.335 459.216 182.734 450.228 181.742 447.751C179.585 442.367 176.267 439.092 174.205 437.099C171.529 434.511 163.9 427.135 151.89 426.151C149.279 425.937 146.934 426.101 144.544 426.601C143.712 425.84 142.833 425.094 141.866 424.385C140.022 423.034 138.202 422.034 136.242 421.253C139.248 417.959 142.262 414.676 145.291 411.407C145.77 411.625 146.225 411.836 146.643 412.03C156.564 416.638 158.744 421.15 168.285 423.525C172.613 424.603 177.514 425.823 178.727 423.988C180.882 420.73 171.734 407.322 157.598 398.251C158.551 397.242 159.506 396.236 160.462 395.229C161.754 395.771 162.893 396.3 163.864 396.751C173.785 401.358 175.964 405.87 185.505 408.246C189.833 409.323 194.734 410.543 195.947 408.709C197.87 405.802 190.794 394.811 179.207 386.032C182.39 385.021 186.61 383.901 192.076 384.045C200.366 384.263 206.842 387.27 210.686 389.056C220.607 393.663 222.787 398.175 232.327 400.551C236.656 401.628 241.556 402.848 242.769 401.014C245.973 396.17 224.212 368.877 198.181 366.782C196.161 366.619 194.344 366.633 192.703 366.755C192.476 366.379 192.229 365.993 191.97 365.6C200.777 365.883 217.978 363.365 232.618 373.644C236.839 376.607 245.04 383.579 258.764 389.307C263.151 391.138 265.357 392.038 265.964 391.286C268.139 388.596 250.057 366.449 224.618 355.539C214.532 351.213 208.301 350.804 203.868 351.459C204.551 350.68 205.217 349.876 205.858 349.069C215.764 339.354 225.794 329.741 235.915 320.256C235.425 321.771 235.441 322.578 235.976 323.166ZM108.858 444.081C97.6699 440.459 84.122 442.405 80.5893 446.526C80.0913 442.873 79.6584 439.216 79.3017 435.551C84.3989 438.398 89.7175 439.16 99.8066 440.507C104.104 441.081 107.747 441.559 110.828 441.857C111.242 442.979 111.683 443.989 112.195 444.954C112.255 445.066 112.318 445.173 112.379 445.284L112.289 445.385C111.141 444.887 109.989 444.447 108.858 444.081ZM79.1323 395.012C79.4514 393.953 79.458 392.825 79.2143 391.663C79.5625 387.453 79.997 383.255 80.5112 379.07C80.498 379.711 80.7011 380.352 80.978 381.047C84.0883 388.859 92.4927 396.357 103.949 400.246C106.086 400.972 107.919 401.43 109.498 401.709C108.803 402.92 108.271 404.099 107.918 405.19C104.013 402.053 98.9853 399.771 93.2812 402.192C91.729 402.851 90.8076 405.26 90.0073 408.142C84.7378 408.233 80.3345 409.332 78.2373 411.192C78.2485 410.416 78.2446 409.642 78.2654 408.865C78.3835 404.436 78.6018 400.022 78.9094 395.621C78.9934 395.424 79.0691 395.221 79.1323 395.012ZM78.2522 417.792C78.4792 418.257 78.728 418.719 78.9863 419.181C78.7519 419.008 78.5119 418.822 78.2656 418.621C78.259 418.345 78.2573 418.068 78.2522 417.792ZM87.2492 474.477C86.6357 474.396 86.0166 474.338 85.3916 474.303C83.9492 467.142 82.6172 459.985 81.5024 452.815C84.434 457.468 89.2189 461.728 95.3139 464.958C92.6093 468.123 89.9272 471.299 87.2492 474.477ZM134.471 420.618C130.656 419.393 126.178 418.806 119.982 418.087C118.412 415.904 116.793 414.296 115.596 413.14C114.948 412.513 113.953 411.27 112.664 409.816C116.004 408.744 120.989 406.834 128.033 407.019C134.435 407.187 139.748 409.018 143.609 410.666C140.551 413.97 137.507 417.289 134.471 420.618ZM156.095 397.313C152.346 395.047 148.279 393.108 143.999 391.744C144.415 391.741 144.822 391.728 145.254 391.74C150.562 391.879 155.121 393.163 158.727 394.537C157.849 395.462 156.971 396.386 156.095 397.313Z" fill="#197602"/>
<ellipse cx="246" cy="205" rx="58" ry="53" fill="#F71414"/>
<ellipse cx="355" cy="62" rx="58" ry="53" fill="#EE1C1C"/>
<ellipse cx="769" cy="53" rx="58" ry="53" fill="#F32B2B"/>
</svg>
