<svg width="756" height="450" viewBox="0 0 756 450" fill="none" xmlns="http://www.w3.org/2000/svg">
<g clip-path="url(#clip0_9_193)">
<path d="M133.984 347.326C132.915 345.725 128.288 347.44 127.438 345.986C126.59 344.538 130.889 342.331 133.344 337.29C133.787 336.381 136.578 330.652 134.512 328.884C130.596 325.534 112.677 339.361 106.406 334.836C105.029 333.843 104.068 331.861 99.9027 328.642C98.2457 327.362 97.2437 326.784 96.274 326.999C94.898 327.304 94.789 328.94 93.3136 332.156C91.1008 336.979 89.7921 336.688 88.5029 340.536C87.5458 343.392 87.7645 345.053 86.6383 345.377C85.0446 345.835 83.5777 342.805 81.558 343.076C79.497 343.353 78.251 346.881 77.8575 349.522C77.1189 354.479 79.1683 357.75 80.3043 361.189C81.5387 364.927 82.2713 370.611 79.4206 378.658L51.2047 449.269C57.4339 434.78 75.4704 395.061 83.0493 380.301C85.2372 376.04 87.653 371.718 92.6132 370.013C97.3888 368.37 103.947 369.351 112.309 367.562C113.285 367.353 115.995 366.74 116.336 365.325C116.618 364.154 115.024 363.501 115.269 362.405C115.598 360.934 118.732 360.916 122.584 359.22C125.3 358.024 126.993 356.601 128.448 355.378C128.886 355.009 135.408 349.458 133.984 347.326Z" fill="#197602"/>
<path d="M22.9744 384.499C21.7809 384.503 21.3937 387.015 20.3451 386.966C19.3003 386.918 19.3211 384.407 17.2441 381.882C16.8696 381.427 14.5092 378.557 12.9363 378.948C9.95496 379.688 12.4252 391.49 8.11546 392.918C7.16967 393.232 5.79678 393.079 2.81648 393.966C1.63083 394.319 1.02229 394.589 0.861333 395.074C0.632969 395.761 1.50533 396.281 2.85676 397.852C4.88349 400.208 4.34494 400.695 6.09932 402.367C7.40169 403.609 8.38251 403.992 8.23633 404.577C8.02954 405.404 5.93199 405.169 5.49916 406.128C5.05752 407.106 6.64743 408.667 7.99344 409.601C10.5194 411.353 12.9181 411.403 15.1463 411.9C17.5678 412.441 20.9201 413.761 24.544 417.326L55.4212 450C49.212 443.104 32.4683 423.781 26.4991 416.218C24.776 414.035 23.0848 411.735 23.5735 409.08C24.044 406.525 26.4782 403.948 27.9021 399.787C28.0684 399.301 28.5119 397.943 27.828 397.386C27.2626 396.925 26.4417 397.431 25.9066 397.008C25.1889 396.441 26.0834 395.069 26.2573 392.901C26.38 391.371 26.0822 390.223 25.826 389.236C25.7488 388.938 24.5633 384.494 22.9744 384.499Z" fill="#197602"/>
<path d="M46.7858 389.247L46.0667 383.545L46.3952 383.113C47.9155 381.114 48.6904 379.162 48.6997 377.309C48.7013 377.015 48.6858 376.72 48.6703 376.42C48.6083 375.231 48.5308 373.752 49.3987 372.029C49.8853 371.068 51.2523 368.844 53.3073 369.119C53.8606 369.188 54.279 369.414 54.5967 369.678C54.6432 369.612 54.6913 369.546 54.7424 369.474C55.3825 368.607 55.8892 368.235 56.3774 367.877C56.7525 367.602 57.1399 367.318 57.7474 366.647C58.014 366.352 58.2217 366.093 58.3968 365.876C58.9284 365.218 59.6227 364.433 60.847 364.447C62.155 364.502 62.8401 365.463 63.2942 366.099C64.1047 367.233 64.472 368.051 64.7153 368.593C64.8037 368.791 64.9044 369.014 64.9555 369.083C65.3771 369.634 68.8037 369.119 70.0946 368.932C72.9943 368.502 75.5034 368.131 76.5372 369.755C77.278 370.917 76.7278 372.453 74.8525 374.443C74.2682 375.063 73.6468 375.534 73.0951 375.903C73.5522 376.145 73.9613 376.517 74.1272 377.1C74.5178 378.482 73.1803 379.867 70.1536 381.222C69.4019 381.56 68.3899 382.012 66.9718 382.229C66.3039 382.331 65.7025 382.356 65.188 382.37C65.1772 382.634 65.1074 382.92 64.9261 383.215C64.3945 384.082 63.288 384.495 61.6204 384.396C59.7854 384.311 58.2744 383.999 56.9416 383.727C55.7777 383.49 54.775 383.289 53.9877 383.336C52.5278 383.441 51.4026 384.479 50.0822 385.825L46.7858 389.247Z" fill="#197602"/>
<path d="M50.1215 355.299L44.0945 357.363L43.5405 357.19C40.9781 356.391 38.6559 356.22 36.6357 356.682C36.3145 356.756 35.9976 356.844 35.6747 356.933C34.3952 357.288 32.8048 357.73 30.7078 357.421C29.538 357.247 26.7687 356.637 26.5473 354.801C26.4819 354.309 26.6216 353.892 26.8289 353.552C26.7451 353.529 26.661 353.504 26.5701 353.478C25.4633 353.148 24.93 352.807 24.4163 352.479C24.0214 352.226 23.6143 351.965 22.7286 351.614C22.3402 351.459 22.0057 351.346 21.7244 351.251C20.873 350.961 19.8424 350.564 19.5469 349.508C19.2751 348.371 20.1477 347.538 20.7251 346.987C21.7548 346.003 22.5521 345.48 23.081 345.133C23.2745 345.007 23.4918 344.864 23.5538 344.803C24.0465 344.301 22.6167 341.487 22.0853 340.426C20.8821 338.043 19.8409 335.982 21.3477 334.682C22.425 333.751 24.2376 333.834 26.881 334.94C27.7038 335.285 28.3741 335.699 28.9158 336.08C29.0637 335.625 29.3647 335.18 29.9583 334.889C31.3643 334.203 33.2116 335.001 35.4545 337.258C36.014 337.818 36.7624 338.573 37.3589 339.736C37.6393 340.284 37.8188 340.794 37.9643 341.233C38.2549 341.175 38.5844 341.162 38.9512 341.243C40.0305 341.48 40.7609 342.326 41.0759 343.784C41.4484 345.382 41.4929 346.759 41.5341 347.974C41.5715 349.034 41.607 349.946 41.8577 350.611C42.3419 351.838 43.7576 352.542 45.5587 353.335L50.1215 355.299Z" fill="#197602"/>
<path d="M46.7858 338.502L46.0667 332.8L46.3952 332.368C47.9155 330.369 48.6904 328.417 48.6997 326.564C48.7013 326.27 48.6858 325.975 48.6703 325.675C48.6083 324.486 48.5308 323.007 49.3987 321.284C49.8853 320.323 51.2523 318.099 53.3073 318.374C53.8606 318.443 54.279 318.668 54.5967 318.933C54.6432 318.867 54.6913 318.801 54.7424 318.729C55.3825 317.862 55.8892 317.49 56.3774 317.132C56.7525 316.857 57.1399 316.573 57.7474 315.902C58.014 315.607 58.2217 315.348 58.3968 315.131C58.9284 314.473 59.6227 313.688 60.847 313.702C62.155 313.757 62.8401 314.718 63.2942 315.354C64.1047 316.488 64.472 317.306 64.7153 317.848C64.8037 318.046 64.9044 318.269 64.9555 318.338C65.3771 318.889 68.8037 318.374 70.0946 318.187C72.9943 317.757 75.5034 317.385 76.5372 319.01C77.278 320.172 76.7278 321.708 74.8525 323.698C74.2682 324.318 73.6468 324.789 73.0951 325.157C73.5522 325.4 73.9613 325.771 74.1272 326.355C74.5178 327.737 73.1803 329.122 70.1536 330.476C69.4019 330.815 68.3899 331.267 66.9718 331.484C66.3039 331.586 65.7025 331.611 65.188 331.625C65.1772 331.889 65.1074 332.175 64.9261 332.47C64.3945 333.337 63.288 333.75 61.6204 333.651C59.7854 333.565 58.2744 333.254 56.9416 332.982C55.7777 332.745 54.775 332.544 53.9877 332.591C52.5278 332.695 51.4026 333.733 50.0822 335.08L46.7858 338.502Z" fill="#197602"/>
<path d="M53.3538 449.176L52.0086 448.427L50.4402 448.587C50.4154 448.458 50.3301 448.16 50.2015 447.695C49.4995 445.146 47.3592 437.387 45.5738 425.169C44.3278 416.64 43.6226 407.872 43.4769 399.103C43.3313 390.321 43.7993 383.672 44.1744 378.328C44.458 374.297 44.802 370.46 45.1399 366.721C46.0387 356.733 46.8865 347.298 46.2557 336.853C46.1162 334.521 45.8233 329.667 42.6307 324.502C40.7787 321.507 38.2278 318.847 35.0476 316.601L37.0251 314.393C40.5354 316.876 43.3576 319.822 45.4142 323.148C48.9539 328.874 49.2732 334.163 49.4266 336.704C50.0682 347.334 49.2112 356.859 48.303 366.944C47.9682 370.669 47.6242 374.49 47.3421 378.504C46.9702 383.798 46.5068 390.389 46.6509 399.059C46.7935 407.723 47.4909 416.384 48.7199 424.806C50.4836 436.87 52.5928 444.513 53.2856 447.023C53.6545 448.364 53.7319 448.645 53.3538 449.176Z" fill="#197602"/>
<path d="M29.2265 321.08C29.0963 321.08 28.9646 321.077 28.8313 321.069C26.1284 320.94 23.6255 319.503 21.3907 316.799C20.3431 315.527 19.8069 314.076 18.7375 311.183C18.5717 310.737 17.7657 308.474 17.276 305.36C16.9552 303.325 16.9955 302.475 17.4496 301.723C17.9533 300.886 18.7685 300.302 19.6859 299.909C19.6457 299.639 19.6782 299.361 19.8099 299.077C20.3508 297.902 21.789 298.056 22.567 298.13C22.9607 298.174 23.4519 298.232 23.982 298.207C24.8158 298.172 25.2637 297.951 25.9425 297.621C26.5919 297.304 27.3993 296.911 28.5973 296.693C30.9592 296.255 32.9382 296.85 33.5907 297.046C37.0235 298.061 38.7159 300.432 40.6748 303.177C41.0653 303.727 42.4059 305.732 43.2908 308.479C43.9293 310.461 43.8395 311.342 43.6473 311.998C43.2567 313.344 42.3346 314.115 39.9929 315.816C37.5473 317.597 36.3199 318.489 35.266 319.032C32.8127 320.29 31.2722 321.08 29.2265 321.08Z" fill="#197602"/>
<path d="M738.468 447.894C738.468 448.416 737.991 448.839 737.404 448.839H0V446.949H737.404C737.991 446.949 738.468 447.373 738.468 447.894Z" fill="black"/>
<path d="M525.589 149.169C525.589 149.169 485.896 153.41 492.591 125.534C499.287 97.6586 537.249 46.1709 537.249 46.1709L558.792 56.9017L534.059 108.829L544.707 116.29L525.589 149.169Z" fill="#A0616A"/>
<path d="M655.666 115.233L650.072 156.093L509.915 155.484L538.065 112.031L655.666 115.233Z" fill="#6C63FF"/>
<path d="M572.375 48.342C580.952 37.7022 581.64 25.0924 573.912 20.1773C566.183 15.2622 552.965 19.903 544.388 30.5428C535.811 41.1827 535.122 53.7925 542.851 58.7076C550.579 63.6227 563.797 58.9819 572.375 48.342Z" fill="#A0616A"/>
<path d="M642.189 271.013V448.34H650.795V271.013H642.189Z" fill="#3F3D56"/>
<path d="M600.884 271.013V448.34H609.489V271.013H600.884Z" fill="#3F3D56"/>
<path d="M369.4 159.419V448.34H378.005V159.419H369.4Z" fill="#FA28A6"/>
<path d="M507.946 271.013V448.34H516.551V271.013H507.946Z" fill="#3F3D56"/>
<path d="M475.015 271.013V448.34H483.62V271.013H475.015Z" fill="#3F3D56"/>
<path d="M634.444 267.191H468.266L436.389 307.353L601.744 316.109L634.444 267.191Z" fill="#3F3D56"/>
<path d="M330.155 129.782L330.91 100.656L230.616 107.508L230.103 127.244L330.155 129.782Z" fill="#A0616A"/>
<path d="M262.277 104.028L257.48 114.278L250.591 114.474C250.591 114.474 258.657 116.668 260.897 129.687L254.278 131.449C254.278 131.449 247.921 136.717 236.038 136.206L204.177 133.838L204.055 123.973L226.075 121.713C226.075 121.713 230.982 118.845 206.692 107.057C206.692 107.057 198.646 102.687 205.883 81.1056C206.877 78.1394 209.882 76.009 213.365 75.942C215.288 75.905 217.089 76.5185 217.809 78.6395C219.639 84.0386 217.787 89.4209 222.818 92.7912C227.848 96.1614 262.277 104.028 262.277 104.028Z" fill="#2F2E41"/>
<path d="M622.008 241.132C622.008 241.132 587.402 293.41 509.098 283.988C490.464 281.746 474.069 271.906 464.729 257.41C446.676 229.391 419.263 180.33 428.151 152.55L295.714 130.099L285.28 101.531L428.609 84.994C441.287 83.5312 453.706 89.0072 460.059 98.8615L529.879 207.163L550.693 209.182L622.008 241.132Z" fill="#2F2E41"/>
<path d="M332.77 141.704L330.884 112.619L231.535 126.616L232.812 146.325L332.77 141.704Z" fill="#A0616A"/>
<path d="M262.778 120.885L258.926 131.445L252.077 132.132C252.077 132.132 260.315 133.742 263.728 146.559L257.29 148.789C257.29 148.789 251.431 154.494 239.54 154.833L207.568 154.751L206.552 144.926L228.297 141.099C228.297 141.099 232.928 137.891 207.649 127.877C207.649 127.877 199.233 124.095 204.491 102.067C205.214 99.0391 208.016 96.7009 211.482 96.3852C213.395 96.2109 215.246 96.6937 216.155 98.7565C218.469 104.007 217.11 109.504 222.43 112.504C227.749 115.504 262.778 120.885 262.778 120.885Z" fill="#2F2E41"/>
<path d="M633.762 231.839C633.762 231.839 604.004 286.42 525.1 282.625C506.323 281.721 489.091 273.084 478.468 259.303C457.936 232.664 426.168 185.722 432.51 157.397L298.469 144.482L285.481 116.753L426.848 90.0268C439.352 87.6628 452.227 92.2336 459.452 101.602L538.855 204.563L559.784 205.088L633.762 231.839Z" fill="#2F2E41"/>
<path d="M543.052 1.35718L536.167 5.94321L572.31 50.2749L579.194 48.7462L543.052 1.35718Z" fill="#3F3D56"/>
<path d="M637.026 99.801L676.611 98.2723L693.821 167.063C693.821 167.063 657.679 287.828 614.652 283.242C614.652 283.242 587.976 265.663 587.976 259.548C587.976 253.433 551.833 238.146 551.833 238.146L543.228 212.159L569.044 176.999C569.044 176.999 579.37 149.483 613.792 134.196L637.026 99.801Z" fill="#6C63FF"/>
<path d="M410.705 153.305H58.7468V160.948H230.854V448.34H239.459V160.948H410.705V153.305Z" fill="#FA28A6"/>
<path d="M657.679 93.6863C683.343 93.6863 704.148 75.2072 704.148 52.412C704.148 29.6168 683.343 11.1377 657.679 11.1377C632.015 11.1377 611.21 29.6168 611.21 52.412C611.21 75.2072 632.015 93.6863 657.679 93.6863Z" fill="#A0616A"/>
<path d="M495.654 105.151L463.198 116.616L526.878 191.522L549.251 176.235L495.654 105.151Z" fill="#E6E6E6"/>
<path d="M622.397 248.847C622.397 248.847 610.349 282.707 584.533 265.777C558.717 248.847 521.606 196.872 521.606 196.872L541.507 183.878L584.533 225.333L596.581 219.802L622.397 248.847Z" fill="#A0616A"/>
<path d="M641.329 129.61L680.913 151.012L622.397 264.134L584.533 218.274L641.329 129.61Z" fill="#6C63FF"/>
<path d="M536.774 197.519C545.005 193.298 545.707 180.689 538.34 169.356C530.974 158.023 518.329 152.258 510.097 156.479C501.865 160.701 501.164 173.31 508.531 184.643C515.897 195.976 528.542 201.741 536.774 197.519Z" fill="#A0616A"/>
<path d="M662.761 177.379C674.686 142.651 687.485 131.662 700.941 138.542C711.183 143.779 714.265 155.701 708.263 164.743C692.964 187.791 661.438 240.599 668.005 275.599C668.005 275.599 678.332 324.517 595.72 324.517C513.109 324.517 433.94 307.701 433.94 307.701L476.967 301.587L574.814 307.794C597.17 309.213 616.012 292.223 613.025 272.493C612.927 271.842 612.81 271.183 612.674 270.517C607.768 246.554 662.761 177.379 662.761 177.379Z" fill="#3F3D56"/>
<path d="M640.262 35.302C636.466 44.7428 644.807 54.5458 656.069 53.879L656.337 53.8631C663.907 62.2681 664.116 74.1575 656.845 82.7684C656.248 93.8668 658.205 104.957 662.598 115.36L674.939 144.591L693.937 136.716L702.954 158.091L756 133.819L723.851 69.5686L714.04 34.7113C707.059 9.91188 678.579 -5.01532 650.764 1.54719L629.423 6.58207C612.564 10.5598 602.86 26.2381 608.113 41.0131L640.262 35.302Z" fill="#2F2E41"/>
</g>
<defs>
<clipPath id="clip0_9_193">
<rect width="756" height="450" fill="white"/>
</clipPath>
</defs>
</svg>
