<svg width="756" height="481" viewBox="0 0 756 481" fill="none" xmlns="http://www.w3.org/2000/svg">
<g clip-path="url(#clip0_8_12)">
<path d="M728.789 393.587H27.2113C12.2072 393.587 0 384.418 0 373.146V309.716H756V373.146C756 384.418 743.793 393.587 728.789 393.587Z" fill="#FA28A6"/>
<path d="M468.8 382.977H289.89V478.974H468.8V382.977Z" fill="#FA28A6"/>
<path d="M479.562 466.848H279.128V478.974H479.562V466.848Z" fill="#FA28A6"/>
<path d="M755.327 336.494H0V14.0275C0 6.29289 8.37726 0 18.6738 0H736.654C746.95 0 755.327 6.29289 755.327 14.0275V336.494Z" fill="#3F3D56"/>
<path d="M737.167 14.6521H17.4877V318.811H737.167V14.6521Z" fill="white"/>
<path d="M156.862 195.939C162.37 192.52 169.184 191.883 172.08 194.517C174.976 197.151 172.858 202.056 167.347 205.476C165.17 206.865 162.583 207.842 159.801 208.325L136.218 222.59L127.543 214.134L151.712 200.969C152.869 199.008 154.635 197.283 156.862 195.939Z" fill="#FFB6B6"/>
<path d="M20.5589 228.124C20.5469 227.493 20.5548 221.991 25.9781 218.512C32.208 214.517 40.9987 216.134 44.082 216.701C51.2044 218.012 51.7886 220.307 58.4773 222.665C70.9911 227.077 55.3117 224.819 62.7579 223.404C65.3353 222.914 102.415 220.983 111.645 216.715C129.596 208.416 141.827 203.383 141.827 203.383L149.823 215.396C149.823 215.396 138.261 227.472 121.989 236.419C105.297 245.596 96.9511 250.184 84.2676 251.957C83.1754 252.11 56.3127 255.555 34.6769 243.413C29.7419 240.643 20.6998 235.569 20.5589 228.124Z" fill="#6C63FF"/>
<path d="M45.3623 197.573C60.7457 197.573 73.2164 188.206 73.2164 176.65C73.2164 165.094 60.7457 155.726 45.3623 155.726C29.9789 155.726 17.5082 165.094 17.5082 176.65C17.5082 188.206 29.9789 197.573 45.3623 197.573Z" fill="#FFB6B6"/>
<path d="M263.505 317.223L234.819 295.166L220.011 306.769L241.383 327.918L262.582 329.739L263.505 317.223Z" fill="#FFB6B6"/>
<path d="M99.7075 275.86C101.385 275.965 106.717 276.767 111.813 274.661C115.292 273.224 117.075 271.087 117.678 270.407C125.152 261.974 153.84 248.825 179.586 248.016C185.417 247.833 189.254 248.34 192.743 249.706C197.689 251.643 199.664 254.417 205.94 260.916C209.374 264.471 213.173 267.82 216.647 271.352C236.99 292.032 244.702 293.656 243.914 300.285C243.039 307.641 232.478 314.62 225.459 313.814C222.585 313.484 221.471 311.983 217.631 308.943C206.37 300.031 201.711 301.678 193.694 294.851C184.334 286.881 185.559 280.273 180.676 280.018C176.147 279.781 174.222 285.418 164.554 292.907C160.13 296.334 156.98 297.906 147.382 302.908C110.006 322.386 109.41 323.754 101.867 325.308C98.5665 325.988 75.1437 330.811 66.7998 323.135C53.7427 311.122 84.5892 274.917 99.7075 275.86Z" fill="#2F2E41"/>
<path d="M254.735 322.207C256.845 321.496 259.312 320.664 260.105 318.75C260.642 317.455 260.333 315.859 259.223 314.756C257.942 313.483 256.047 313.315 256.123 313.09C256.24 312.747 260.723 312.881 265.644 314.188C266.572 314.435 270.779 315.589 276.131 318.728C280.418 321.242 279.841 321.746 282.53 323.196C290.783 327.646 298.524 324.139 302.99 328.312C304.713 329.923 305.448 332.21 304.723 334.059C303.266 337.773 296.183 339.051 292.312 339.711C282.988 341.3 275.931 340.002 268.562 339.07C243.502 335.898 229.422 338.787 227.538 334.425C227.181 333.6 227.76 333.67 229.693 327.613C231.6 321.635 231.537 319.993 233.161 319.514C235.606 318.794 237.248 322.072 243.407 323.193C248.865 324.188 253.368 322.669 254.735 322.207Z" fill="#2F2E41"/>
<path d="M212.506 389.381L205.259 359.029L184.332 362.384L186.207 388.899L202.387 399.348L212.506 389.381Z" fill="#FFB6B6"/>
<path d="M107.892 286.062C109.202 286.857 113.014 289.77 118.805 290.177C122.758 290.455 125.831 289.438 126.838 289.13C139.326 285.305 172.893 286.526 194.802 296.717C199.764 299.025 202.56 301.063 204.425 303.665C207.07 307.354 206.63 310.483 206.965 318.508C207.149 322.898 207.789 327.272 208.023 331.66C209.397 357.352 214.565 361.949 208.957 367.102C202.734 372.82 188.779 374.14 183.573 370.512C181.441 369.027 181.643 367.315 180.737 363.179C178.081 351.055 172.996 350.452 171.465 341.422C169.677 330.879 175.631 325.928 171.781 323.656C168.211 321.55 162.404 325.403 148.806 327.522C142.583 328.491 138.801 328.463 127.121 328.553C81.634 328.904 80.1172 329.785 72.7146 327.889C69.4758 327.059 46.4886 321.17 45.3229 311.299C43.4988 295.851 96.0874 278.905 107.892 286.062Z" fill="#2F2E41"/>
<path d="M201.524 389.806C203.801 390.107 206.464 390.459 208.552 389.211C209.964 388.366 210.901 386.915 210.807 385.533C210.699 383.94 209.256 383.002 209.488 382.848C209.841 382.613 213.45 384.615 216.545 387.772C217.129 388.368 219.747 391.098 221.829 395.952C223.497 399.841 222.643 400.015 223.784 402.349C227.286 409.512 236.313 409.875 236.888 415.213C237.11 417.272 236.009 419.475 234.026 420.699C230.045 423.157 223.229 421.227 219.532 420.14C210.63 417.522 205.76 413.472 200.36 409.592C181.995 396.396 168.185 392.847 169.885 388.444C170.207 387.61 170.634 387.913 176.761 383.716C182.808 379.573 183.984 378.188 185.686 378.477C188.247 378.912 187.155 382.317 191.413 385.844C195.186 388.968 200.048 389.611 201.524 389.806Z" fill="#2F2E41"/>
<path d="M49.1597 180.65C50.2441 177.736 48.8821 176.674 50.2703 175.366C50.2703 175.366 50.8289 174.84 55.8232 173.42C54.3497 166.997 55.453 165.911 55.453 165.911C56.7246 164.66 59.2718 164.357 61.0059 164.521C64.6735 164.867 65.3227 167.358 67.6694 167.302C70.9112 167.224 74.7993 162.35 73.5925 158.125C72.6081 154.678 68.3633 152.119 67.2992 152.563C66.2442 153.003 62.4463 151.062 61.0059 151.451C60.0223 151.716 55.3923 151.363 54.3424 151.729C53.1959 152.128 49.9126 154.616 49.5987 154.303C47.4173 152.125 47.4637 151.364 46.1982 150.895C43.9556 150.063 41.5175 151.6 37.3135 153.119C28.6637 156.245 26.1309 154.38 22.1356 157.013C20.1173 158.342 19.035 160.883 16.9528 165.911C14.0409 172.943 12.585 176.459 13.9913 179.815C15.4255 183.239 17.5375 182.494 20.6548 187.324C24.1248 192.7 22.9288 195.825 26.2077 197.057C28.7418 198.008 32.8143 197.403 34.352 195.666C36.9846 192.693 30.1801 188.672 32.501 183.987C33.9256 181.111 38.3204 178.93 41.0155 179.537C44.0628 180.224 44.2872 184.328 46.1982 184.265C47.8346 184.21 48.9707 181.157 49.1597 180.65Z" fill="#2F2E41"/>
<path d="M28.0587 200.672C33.7587 195.871 56.9758 200.84 59.155 208.458C60.0513 211.592 56.7424 212.915 57.6742 216.523C59.0371 221.8 66.754 221.44 72.482 226.812C80.614 234.438 72.2364 241.893 81.3666 254.62C83.3176 257.34 84.962 259.632 88.4003 261.851C96.2902 266.941 103.633 265.195 107.65 269.915C110.655 273.444 109.42 277.795 109.131 278.814C107.945 282.992 104.732 284.01 102.468 287.434C98.7003 293.131 102.966 297.313 103.208 304.119C103.511 312.635 97.4868 324.44 85.4388 328.313C71.9034 332.664 55.5786 325.457 47.679 318.302C42.9652 314.032 41.5969 310.093 39.5347 305.232C30.3183 283.505 25.1115 285.47 18.0635 268.247C10.0062 248.557 8.4223 225.49 18.0635 218.191C19.3413 217.224 22.8581 214.988 25.0971 210.961C28.11 205.543 25.5072 202.821 28.0587 200.672Z" fill="#6C63FF"/>
<path d="M112.281 312.429C116.7 316.647 117.385 321.778 113.811 323.891C110.238 326.003 103.759 324.296 99.3392 320.076C97.5428 318.408 96.3041 316.442 95.7267 314.341L77.3027 296.293L86.8227 290.838L105.708 308.442C108.292 309.357 110.545 310.725 112.281 312.429Z" fill="#FFB6B6"/>
<path d="M44.8061 218.968C45.6258 218.831 52.7989 217.714 58.4382 220.992C64.9163 224.758 64.6025 231.553 64.4924 233.936C64.2382 239.441 61.3663 240.339 59.6579 245.739C56.4614 255.842 62.5487 265.23 65.9118 270.417C67.0759 272.213 70.8158 277.707 78.2605 283.624C92.7394 295.131 105.658 301.186 105.658 301.186L91.7798 310.453C91.7798 310.453 69.6728 305.392 54.6932 295.251C39.3276 284.848 15.6979 248.043 10.7995 239.078C10.3776 238.306 16.3531 250.858 27.7626 232.47C30.365 228.276 35.1333 220.591 44.8061 218.968Z" fill="#6C63FF"/>
<path d="M400.014 210.335L383.443 204.439C390.24 211.564 396.096 222.691 399.232 231.546C404.54 223.298 413.098 213.206 421.569 207.177L404.055 210.562C414.847 170.831 455.437 142.309 501.918 142.309L502.576 140.874C454.025 140.874 411.033 169.001 400.014 210.335Z" fill="#3F3D56"/>
<path d="M476.283 270.871H371.582C367.141 270.871 363.528 268.157 363.528 264.821C363.528 261.485 367.141 258.771 371.582 258.771H476.283C480.723 258.771 484.336 261.485 484.336 264.821C484.336 268.157 480.723 270.871 476.283 270.871Z" fill="#6C63FF"/>
<path d="M615.599 270.871H510.899C506.458 270.871 502.845 268.157 502.845 264.821C502.845 261.485 506.458 258.771 510.899 258.771H615.599C620.04 258.771 623.653 261.485 623.653 264.821C623.653 268.157 620.04 270.871 615.599 270.871Z" fill="#6C63FF"/>
<path d="M553.618 106.287H451.844C449.279 106.287 447.191 104.719 447.191 102.791C447.191 100.864 449.279 99.2965 451.844 99.2965H553.618C556.184 99.2965 558.271 100.864 558.271 102.791C558.271 104.719 556.184 106.287 553.618 106.287Z" fill="#3F3D56"/>
<path d="M608.231 143.58H397.232C394.666 143.58 392.578 142.012 392.578 140.084C392.578 138.157 394.666 136.589 397.232 136.589H608.231C610.797 136.589 612.884 138.157 612.884 140.084C612.884 142.012 610.797 143.58 608.231 143.58Z" fill="#3F3D56"/>
<path d="M45.7479 479.868C45.7479 480.496 46.4192 481 47.2552 481H708.745C709.581 481 710.252 480.496 710.252 479.868C710.252 479.24 709.581 478.736 708.745 478.736H47.2552C46.4192 478.736 45.7479 479.24 45.7479 479.868Z" fill="#6C63FF"/>
<path d="M208.176 211.491C207.997 211.491 207.818 211.486 207.638 211.478C197.038 210.967 160.77 207.112 139.119 178.99C137.334 176.674 137.686 173.731 139.993 171.666L180.091 135.777C181.731 134.31 184.264 133.464 186.829 133.487C188.602 133.519 192.8 133.856 193.616 136.287C198.433 150.649 218.773 167.537 243.235 169.775C245.714 170.002 247.705 171.663 248.559 174.22C249.225 176.21 248.61 178.262 246.868 179.849L214.746 209.15C213.115 210.638 210.72 211.491 208.176 211.491ZM186.675 134.931C184.716 134.931 182.81 135.591 181.564 136.706L141.466 172.594C139.677 174.195 139.403 176.475 140.783 178.266C161.957 205.768 197.403 209.536 207.762 210.036C209.877 210.143 211.908 209.466 213.262 208.232L245.385 178.931C246.733 177.701 247.21 176.113 246.694 174.572C246.19 173.063 244.955 171.388 243.002 171.209C217.732 168.897 196.723 151.465 191.751 136.639C191.348 135.439 188.924 134.97 186.789 134.932C186.751 134.931 186.713 134.931 186.675 134.931Z" fill="#3F3D56"/>
<path d="M163.418 180.171L192.327 158.029C194.303 156.515 191.207 154.186 189.229 155.701L160.32 177.843C158.344 179.357 161.44 181.686 163.418 180.171Z" fill="#6C63FF"/>
<path d="M180.867 186.409C188.845 181.037 195.778 174.817 201.456 167.992C202.954 166.191 199.165 164.537 197.672 166.331C192.183 172.929 185.481 178.889 177.768 184.082C175.664 185.498 178.771 187.82 180.867 186.409Z" fill="#6C63FF"/>
<path d="M196.592 193.879C203.856 187.834 210.04 181.088 214.908 173.811C216.171 171.923 212.392 170.254 211.124 172.149C206.421 179.18 200.514 185.71 193.494 191.551C191.608 193.12 194.698 195.455 196.592 193.879Z" fill="#6C63FF"/>
<path d="M184.207 154.016C200.304 154.016 213.353 144.42 213.353 132.583C213.353 120.746 200.304 111.151 184.207 111.151C168.11 111.151 155.061 120.746 155.061 132.583C155.061 144.42 168.11 154.016 184.207 154.016Z" fill="#6C63FF"/>
<path d="M199.372 142.75C194.889 134.471 190.407 126.193 185.924 117.914C185.305 116.771 183.366 116.73 182.762 117.914C178.333 126.594 175.438 135.65 174.047 144.885C173.81 146.458 177.092 146.445 177.327 144.885C177.871 141.271 178.68 137.685 179.717 134.136C183.411 134.282 187.135 133.971 190.7 133.229C192.536 136.621 194.373 140.013 196.209 143.405C196.994 144.855 200.168 144.221 199.372 142.75ZM180.461 131.701C181.566 128.304 182.89 124.947 184.427 121.645L189.454 130.929C186.51 131.509 183.498 131.767 180.461 131.701Z" fill="white"/>
</g>
<defs>
<clipPath id="clip0_8_12">
<rect width="756" height="481" fill="white"/>
</clipPath>
</defs>
</svg>
