<svg width="413" height="73" viewBox="0 0 413 73" fill="none" xmlns="http://www.w3.org/2000/svg">
<path d="M50.084 13L413 0L396.819 73L0 62L50.084 13Z" fill="#6C63FF"/>
<g filter="url(#filter0_i_12_259)">
<path d="M38.2812 53L40.5938 50.6875H40.8594C42.4427 50.6875 43.5312 50.3594 44.125 49.7031C44.7292 49.0469 45.25 47.6042 45.6875 45.375L48.5312 31.0938C46.3854 31.0938 44.651 31.6719 43.3281 32.8281C42.0052 33.974 41.3438 35.474 41.3438 37.3281V37.6719L38.3125 39.1406C38.5729 35.9844 39.8125 33.651 42.0312 32.1406C44.25 30.6302 47.5365 29.875 51.8906 29.875H61.0781L59.6875 34.2969H58.7031C58.7865 33.8906 58.8281 33.526 58.8281 33.2031C58.8281 32.3802 58.3542 31.8125 57.4062 31.5C56.4688 31.1875 54.7552 31.0312 52.2656 31.0312H51.7812L49.9688 40.2812H56.9375L55.3438 41.8906C52.9792 41.5885 51.3698 41.4375 50.5156 41.4375H49.7344L49.4062 43.125C49.0417 45.0208 48.4844 46.526 47.7344 47.6406C46.9948 48.7448 45.8021 49.8438 44.1562 50.9375L51.6562 51.2344L53.2969 51.2812C54.9948 51.2812 56.5833 50.6927 58.0625 49.5156L57.8125 50.7812C55.9688 52.6458 54.2344 53.5781 52.6094 53.5781L51.8906 53.5625L38.2812 53ZM72.2031 44.5156L72.8594 42.2031H79.9844L79.3281 44.5156H72.2031ZM90.0938 53L92.3125 50.6875H93.2188C94.4583 50.6875 95.3646 50.3281 95.9375 49.6094C96.5104 48.8906 97.0052 47.5 97.4219 45.4375L99.0156 37.4375C99.4844 35.0729 100.562 33.125 102.25 31.5938C103.938 30.0521 105.854 29.2812 108 29.2812C108.958 29.2812 110.068 29.625 111.328 30.3125L110.547 34.2031H109.547C109.578 33.9323 109.594 33.7083 109.594 33.5312C109.594 31.5938 108.594 30.625 106.594 30.625C104.625 30.625 103.307 32.3073 102.641 35.6719L101.203 42.8594C100.776 45.0156 100.177 46.6719 99.4062 47.8281C98.6458 48.9844 97.4583 50.0104 95.8438 50.9062L104.578 51.0469C107.089 51.0469 109.297 50.4635 111.203 49.2969L110.969 50.4688C109.51 51.7604 108.411 52.5885 107.672 52.9531C106.943 53.3073 105.974 53.4844 104.766 53.4844L90.0938 53ZM128.078 48.7344L127.844 49.9375C124.531 52.2396 121.708 53.3906 119.375 53.3906C117.896 53.3906 116.693 52.875 115.766 51.8438C114.849 50.8021 114.391 49.4583 114.391 47.8125C114.391 44.875 115.516 42.1146 117.766 39.5312C120.016 36.9375 122.417 35.6406 124.969 35.6406C125.896 35.6406 126.646 35.9531 127.219 36.5781C127.792 37.2031 128.078 38.0156 128.078 39.0156C128.078 41.0156 127.057 42.7344 125.016 44.1719C122.974 45.6094 120.536 46.3281 117.703 46.3281L117.688 47.0312C117.688 50.0729 118.802 51.5938 121.031 51.5938C122.958 51.5938 125.307 50.6406 128.078 48.7344ZM117.734 45.3594C120.068 45.1719 121.891 44.5729 123.203 43.5625C124.516 42.5417 125.172 41.224 125.172 39.6094C125.172 38.0156 124.594 37.2188 123.438 37.2188C122.188 37.2188 120.979 38.0521 119.812 39.7188C118.646 41.375 117.953 43.2552 117.734 45.3594ZM143.969 44.5156H143.688C142.51 47.1302 141.094 49.2656 139.438 50.9219C137.781 52.5677 136.229 53.3906 134.781 53.3906C132.583 53.3906 131.484 52.0156 131.484 49.2656C131.484 46.2344 132.693 43.2656 135.109 40.3594C137.609 37.349 140.661 35.8438 144.266 35.8438C145.755 35.8438 147.312 35.9062 148.938 36.0312L147.812 40.6562L146.297 48.375C146.057 49.5833 145.938 50.3646 145.938 50.7188C145.938 51.375 146.245 51.7031 146.859 51.7031C147.901 51.7031 149.453 50.5573 151.516 48.2656L151.234 49.7188C148.953 52.1667 146.906 53.3906 145.094 53.3906C143.583 53.3906 142.828 52.6042 142.828 51.0312C142.828 50.5104 142.953 49.625 143.203 48.375L143.969 44.5156ZM145.219 38.2656C143.906 37.6823 142.609 37.3906 141.328 37.3906C139.432 37.3906 137.917 38.5885 136.781 40.9844C135.448 43.8177 134.781 46.3646 134.781 48.625C134.781 50.2604 135.26 51.0781 136.219 51.0781C137.115 51.0781 138.401 50.1406 140.078 48.2656C141.766 46.3802 143.245 44.2292 144.516 41.8125L145.219 38.2656ZM154.406 53.1875L155.562 48.375L157.078 40.7344C157.234 39.9635 157.312 39.2969 157.312 38.7344C157.312 37.8385 157 37.3906 156.375 37.3906C155.271 37.3906 153.693 38.5677 151.641 40.9219L151.922 39.5312C154.328 36.9375 156.417 35.6406 158.188 35.6406C159.688 35.6406 160.438 36.5 160.438 38.2188C160.438 38.9792 160.344 39.8229 160.156 40.75L159.406 44.5156H159.609C160.849 41.9115 162.312 39.7865 164 38.1406C165.698 36.4844 167.25 35.6562 168.656 35.6562C169.385 35.6562 170.036 35.8177 170.609 36.1406L168.531 38.9531C167.917 38.5469 167.396 38.3438 166.969 38.3438C164.938 38.3438 162.234 41.3281 158.859 47.2969L157.719 53L154.406 53.1875ZM172.234 53.1875L173.391 48.375L174.922 40.6562C175.161 39.4583 175.281 38.6771 175.281 38.3125C175.281 37.6667 174.974 37.3438 174.359 37.3438C173.339 37.3438 171.786 38.4844 169.703 40.7656L169.984 39.3281C172.255 36.8802 174.302 35.6562 176.125 35.6562C177.625 35.6562 178.375 36.4375 178.375 38C178.375 38.5312 178.255 39.4167 178.016 40.6562L177.25 44.5156H177.484C178.786 41.849 180.255 39.7083 181.891 38.0938C183.536 36.4688 185.068 35.6562 186.484 35.6562C188.193 35.6562 189.047 36.6042 189.047 38.5C189.047 39.1146 188.958 39.8646 188.781 40.75L187.266 48.375C187.026 49.5833 186.906 50.3646 186.906 50.7188C186.906 51.375 187.214 51.7031 187.828 51.7031C188.87 51.7031 190.427 50.5573 192.5 48.2656L192.203 49.7188C189.932 52.1667 187.885 53.3906 186.062 53.3906C184.562 53.3906 183.812 52.6042 183.812 51.0312C183.812 50.5104 183.938 49.625 184.188 48.375L185.703 40.7188C185.828 40.125 185.891 39.625 185.891 39.2188C185.891 38.375 185.578 37.9531 184.953 37.9531C182.964 37.9531 180.203 41.1094 176.672 47.4219L175.531 53L172.234 53.1875ZM204.625 48.2656L204.344 49.7188C202.062 52.1667 200.016 53.3906 198.203 53.3906C196.703 53.3906 195.953 52.6042 195.953 51.0312C195.953 50.5 196.073 49.625 196.312 48.4062L197.391 42.9688C197.682 41.4271 197.828 40.401 197.828 39.8906C197.828 39.0156 197.49 38.5781 196.812 38.5781C196.344 38.5781 195.505 38.7604 194.297 39.125L194.484 38.1562L202.125 35.6562L200.938 40.6562L199.406 48.375C199.167 49.5833 199.047 50.3542 199.047 50.6875C199.047 51.3646 199.354 51.7031 199.969 51.7031C201 51.7031 202.552 50.5573 204.625 48.2656ZM198.891 32.9375L199.938 30.8125L204.344 27.9375L203 30.8125L198.891 32.9375ZM207.047 53.1875L208.203 48.375L209.734 40.6562C209.974 39.4583 210.094 38.6771 210.094 38.3125C210.094 37.6667 209.786 37.3438 209.172 37.3438C208.151 37.3438 206.599 38.4844 204.516 40.7656L204.797 39.3281C207.068 36.8802 209.115 35.6562 210.938 35.6562C212.438 35.6562 213.188 36.4375 213.188 38C213.188 38.5312 213.068 39.4167 212.828 40.6562L212.062 44.5156H212.297C213.599 41.849 215.068 39.7083 216.703 38.0938C218.349 36.4688 219.88 35.6562 221.297 35.6562C223.005 35.6562 223.859 36.6042 223.859 38.5C223.859 39.1146 223.771 39.8646 223.594 40.75L222.078 48.375C221.839 49.5833 221.719 50.3646 221.719 50.7188C221.719 51.375 222.026 51.7031 222.641 51.7031C223.682 51.7031 225.24 50.5573 227.312 48.2656L227.016 49.7188C224.745 52.1667 222.698 53.3906 220.875 53.3906C219.375 53.3906 218.625 52.6042 218.625 51.0312C218.625 50.5104 218.75 49.625 219 48.375L220.516 40.7188C220.641 40.125 220.703 39.625 220.703 39.2188C220.703 38.375 220.391 37.9531 219.766 37.9531C217.776 37.9531 215.016 41.1094 211.484 47.4219L210.344 53L207.047 53.1875ZM230.453 52.75C229.203 52.125 228.578 50.8698 228.578 48.9844C228.578 45.901 229.828 42.9219 232.328 40.0469C234.755 37.2448 237.771 35.8438 241.375 35.8438C242.062 35.8438 243.516 35.9062 245.734 36.0312L244.625 40.6562L243.891 44.2812C243.516 46.1875 243.26 47.5938 243.125 48.5C242.552 52.1979 241.974 54.7604 241.391 56.1875C240.818 57.625 239.797 59.0312 238.328 60.4062C236.172 62.4062 233.688 63.4062 230.875 63.4062C229.042 63.4062 227.552 63.0469 226.406 62.3281C225.26 61.6198 224.688 60.6927 224.688 59.5469C224.688 57.2552 226.609 54.9896 230.453 52.75ZM242 38.3125C240.75 37.6979 239.505 37.3906 238.266 37.3906C236.88 37.3906 235.708 38.0104 234.75 39.25C233.99 40.2292 233.297 41.6771 232.672 43.5938C232.057 45.5 231.75 47.1302 231.75 48.4844C231.75 49.9531 232.214 50.6875 233.141 50.6875C235.193 50.6875 237.917 47.724 241.312 41.7969L242 38.3125ZM240.766 44.5156H240.516C239.411 46.9635 238.089 48.9323 236.547 50.4219C235.005 51.9115 233.385 52.7865 231.688 53.0469C228.958 54.9323 227.594 56.6823 227.594 58.2969C227.594 59.3385 228.099 60.224 229.109 60.9531C230.13 61.6927 231.365 62.0625 232.812 62.0625C234.677 62.0625 236.146 61.3333 237.219 59.875C238.302 58.4271 239.073 56.1354 239.531 53L240.766 44.5156ZM278.609 53.5781L279.578 48.7656C277.276 51.974 274.802 53.5781 272.156 53.5781C270.312 53.5781 268.844 52.9375 267.75 51.6562C266.656 50.3646 266.109 48.6406 266.109 46.4844C266.109 45.1406 266.422 42.9479 267.047 39.9062C267.682 36.8646 268.417 34 269.25 31.3125C268.719 31.2292 268.349 31.1875 268.141 31.1875C266.422 31.1875 264.99 31.8021 263.844 33.0312C262.698 34.25 262.125 35.7708 262.125 37.5938L259.094 39.0781C259.552 32.9427 263.781 29.875 271.781 29.875H272.906C271.958 32.8542 271.146 35.9688 270.469 39.2188C269.792 42.4688 269.453 44.8698 269.453 46.4219C269.453 48.1094 269.786 49.4323 270.453 50.3906C271.12 51.3385 272.052 51.8125 273.25 51.8125C274.51 51.8125 275.755 51.2708 276.984 50.1875C278.214 49.1042 279.281 47.599 280.188 45.6719L283.328 29.875L286.875 29.4844L285.688 34.5L283.453 45.6875C283.047 47.7396 282.844 49.0677 282.844 49.6719C282.844 50.7969 283.536 51.3594 284.922 51.3594C285.411 51.3594 286.036 51.3073 286.797 51.2031L286.594 52.2031L278.609 53.5781ZM290.406 53L292.703 50.6875H293.031C294.594 50.6875 295.672 50.3333 296.266 49.625C296.859 48.9062 297.406 47.3073 297.906 44.8281L300.641 31.0938C298.495 31.0938 296.76 31.6719 295.438 32.8281C294.115 33.974 293.453 35.474 293.453 37.3281V37.6719L290.422 39.1406C290.682 35.9531 291.922 33.6146 294.141 32.125C296.359 30.625 299.698 29.875 304.156 29.875C307.302 29.875 309.547 30.2135 310.891 30.8906C312.245 31.5677 312.922 32.6927 312.922 34.2656C312.922 37.4427 310.526 39.6615 305.734 40.9219C309.755 42.2135 311.766 43.9844 311.766 46.2344C311.766 48.2448 310.667 49.9427 308.469 51.3281C306.271 52.7031 303.568 53.3906 300.359 53.3906L296.656 53.2656L290.406 53ZM302.031 40.5625H302.844C304.771 40.5625 306.365 39.9948 307.625 38.8594C308.885 37.7135 309.516 36.2656 309.516 34.5156C309.516 32.0573 307.797 30.8281 304.359 30.8281H303.969L302.031 40.5625ZM296.219 50.9688L297.844 51.3281C299.438 51.6719 301.115 51.8438 302.875 51.8438C306.458 51.8438 308.25 50.1719 308.25 46.8281C308.25 45.1927 307.714 43.9062 306.641 42.9688C305.578 42.0208 304.125 41.5469 302.281 41.5469H301.828L301.484 43.2969C300.797 46.7135 299.042 49.2708 296.219 50.9688ZM313.703 51.6875L315.812 49.5625C316.802 51.0833 318.099 51.8438 319.703 51.8438C321.234 51.8438 322.672 51.2083 324.016 49.9375C325.37 48.6562 326.984 46.3906 328.859 43.1406L335.594 31.5156C334.458 31.3802 333.484 31.3125 332.672 31.3125C330.495 31.3125 328.812 31.8594 327.625 32.9531C326.448 34.0365 325.859 35.5885 325.859 37.6094L322.797 39.125C322.995 37.1667 323.542 35.5469 324.438 34.2656C325.427 32.8385 326.594 31.8229 327.938 31.2188C329.281 30.6146 331.229 30.224 333.781 30.0469C334.292 30.0156 335.062 29.9583 336.094 29.875L339.281 29.2969L339.484 34.5L340.391 45.2969C340.599 47.8073 340.891 49.4635 341.266 50.2656C341.651 51.0573 342.339 51.4531 343.328 51.4531C343.505 51.4531 344.115 51.4219 345.156 51.3594L344.953 52.3906L337.781 53.5781L337.141 45.875H328.625C326.979 48.7292 325.422 50.7292 323.953 51.875C322.484 53.0104 320.734 53.5781 318.703 53.5781C316.776 53.5781 315.109 52.9479 313.703 51.6875ZM329.297 44.7188H337.031L336.031 32.9844L329.297 44.7188ZM341.641 55.9219L343.781 53.75C344.719 55.7604 346.172 56.7656 348.141 56.7656C349.443 56.7656 350.458 56.2708 351.188 55.2812C351.927 54.2917 352.536 52.6042 353.016 50.2188L356.594 32.1875H352.422L354.625 29.875H364.688L362.281 32.1875H359.875L356.828 47.5C356.151 50.875 354.958 53.4688 353.25 55.2812C351.542 57.1042 349.438 58.0156 346.938 58.0156C345 58.0156 343.234 57.3177 341.641 55.9219ZM361.891 51.6875L364 49.5625C364.99 51.0833 366.286 51.8438 367.891 51.8438C369.422 51.8438 370.859 51.2083 372.203 49.9375C373.557 48.6562 375.172 46.3906 377.047 43.1406L383.781 31.5156C382.646 31.3802 381.672 31.3125 380.859 31.3125C378.682 31.3125 377 31.8594 375.812 32.9531C374.635 34.0365 374.047 35.5885 374.047 37.6094L370.984 39.125C371.182 37.1667 371.729 35.5469 372.625 34.2656C373.615 32.8385 374.781 31.8229 376.125 31.2188C377.469 30.6146 379.417 30.224 381.969 30.0469C382.479 30.0156 383.25 29.9583 384.281 29.875L387.469 29.2969L387.672 34.5L388.578 45.2969C388.786 47.8073 389.078 49.4635 389.453 50.2656C389.839 51.0573 390.526 51.4531 391.516 51.4531C391.693 51.4531 392.302 51.4219 393.344 51.3594L393.141 52.3906L385.969 53.5781L385.328 45.875H376.812C375.167 48.7292 373.609 50.7292 372.141 51.875C370.672 53.0104 368.922 53.5781 366.891 53.5781C364.964 53.5781 363.297 52.9479 361.891 51.6875ZM377.484 44.7188H385.219L384.219 32.9844L377.484 44.7188Z" fill="black"/>
</g>
<path d="M38.2812 53L37.9277 52.6464L37.1216 53.4525L38.2606 53.4996L38.2812 53ZM40.5938 50.6875V50.1875H40.3866L40.2402 50.3339L40.5938 50.6875ZM44.125 49.7031L43.7571 49.3645L43.7542 49.3677L44.125 49.7031ZM45.6875 45.375L45.1971 45.2774L45.1969 45.2787L45.6875 45.375ZM48.5312 31.0938L49.0216 31.1914L49.1406 30.5938H48.5312V31.0938ZM43.3281 32.8281L43.6555 33.2061L43.6572 33.2046L43.3281 32.8281ZM41.3438 37.6719L41.5618 38.1218L41.8438 37.9852V37.6719H41.3438ZM38.3125 39.1406L37.8142 39.0995L37.7422 39.9726L38.5305 39.5906L38.3125 39.1406ZM61.0781 29.875L61.5551 30.025L61.7595 29.375H61.0781V29.875ZM59.6875 34.2969V34.7969H60.0544L60.1645 34.4469L59.6875 34.2969ZM58.7031 34.2969L58.2133 34.1964L58.0902 34.7969H58.7031V34.2969ZM57.4062 31.5L57.2481 31.9743L57.2497 31.9749L57.4062 31.5ZM51.7812 31.0312V30.5312H51.3697L51.2906 30.9351L51.7812 31.0312ZM49.9688 40.2812L49.4781 40.1851L49.3613 40.7812H49.9688V40.2812ZM56.9375 40.2812L57.2928 40.6331L58.1363 39.7812H56.9375V40.2812ZM55.3438 41.8906L55.2804 42.3866L55.5253 42.4179L55.699 42.2424L55.3438 41.8906ZM49.7344 41.4375V40.9375H49.3222L49.2436 41.3421L49.7344 41.4375ZM49.4062 43.125L48.9154 43.0296L48.9152 43.0306L49.4062 43.125ZM47.7344 47.6406L47.3195 47.3615L47.319 47.3624L47.7344 47.6406ZM44.1562 50.9375L43.8795 50.5211L42.593 51.376L44.1365 51.4371L44.1562 50.9375ZM51.6562 51.2344L51.6365 51.734L51.642 51.7342L51.6562 51.2344ZM53.2969 51.2812L53.2826 51.781L53.2897 51.7812H53.2969V51.2812ZM58.0625 49.5156L58.553 49.6125L58.817 48.2762L57.7512 49.1244L58.0625 49.5156ZM57.8125 50.7812L58.168 51.1328L58.2739 51.0258L58.303 50.8781L57.8125 50.7812ZM52.6094 53.5781L52.5985 54.0781H52.6094V53.5781ZM51.8906 53.5625L51.87 54.0622L51.8798 54.0624L51.8906 53.5625ZM38.6348 53.3536L40.9473 51.0411L40.2402 50.3339L37.9277 52.6464L38.6348 53.3536ZM40.5938 51.1875H40.8594V50.1875H40.5938V51.1875ZM40.8594 51.1875C42.4803 51.1875 43.7549 50.8575 44.4958 50.0386L43.7542 49.3677C43.3076 49.8613 42.4051 50.1875 40.8594 50.1875V51.1875ZM44.4928 50.0418C44.8612 49.6416 45.17 49.044 45.439 48.2987C45.7111 47.545 45.9566 46.6002 46.1781 45.4713L45.1969 45.2787C44.9809 46.379 44.7472 47.2701 44.4985 47.9591C44.2467 48.6565 43.9929 49.1084 43.7572 49.3645L44.4928 50.0418ZM46.1779 45.4726L49.0216 31.1914L48.0409 30.9961L45.1971 45.2774L46.1779 45.4726ZM48.5312 30.5938C46.2923 30.5938 44.4322 31.1991 42.9991 32.4517L43.6572 33.2046C44.8699 32.1446 46.4785 31.5938 48.5312 31.5938V30.5938ZM43.0008 32.4502C41.561 33.6972 40.8438 35.3387 40.8438 37.3281H41.8438C41.8438 35.6092 42.4494 34.2507 43.6555 33.2061L43.0008 32.4502ZM40.8438 37.3281V37.6719H41.8438V37.3281H40.8438ZM41.1257 37.2219L38.0945 38.6907L38.5305 39.5906L41.5618 38.1218L41.1257 37.2219ZM38.8108 39.1817C39.0613 36.1458 40.2417 33.9637 42.3126 32.5539L41.7499 31.7273C39.3833 33.3384 38.0845 35.823 37.8142 39.0995L38.8108 39.1817ZM42.3126 32.5539C44.4113 31.1252 47.5799 30.375 51.8906 30.375V29.375C47.493 29.375 44.0887 30.1352 41.7499 31.7273L42.3126 32.5539ZM51.8906 30.375H61.0781V29.375H51.8906V30.375ZM60.6012 29.725L59.2105 34.1469L60.1645 34.4469L61.5551 30.025L60.6012 29.725ZM59.6875 33.7969H58.7031V34.7969H59.6875V33.7969ZM59.1929 34.3973C59.2812 33.9668 59.3281 33.5677 59.3281 33.2031H58.3281C58.3281 33.4844 58.2917 33.8144 58.2133 34.1964L59.1929 34.3973ZM59.3281 33.2031C59.3281 32.6886 59.1771 32.2237 58.8565 31.8397C58.5422 31.4632 58.0954 31.2007 57.5628 31.0251L57.2497 31.9749C57.665 32.1118 57.9292 32.2894 58.0888 32.4806C58.2422 32.6643 58.3281 32.8947 58.3281 33.2031H59.3281ZM57.5644 31.0257C56.5408 30.6845 54.7516 30.5312 52.2656 30.5312V31.5312C54.7588 31.5312 56.3967 31.6905 57.2481 31.9743L57.5644 31.0257ZM52.2656 30.5312H51.7812V31.5312H52.2656V30.5312ZM51.2906 30.9351L49.4781 40.1851L50.4594 40.3774L52.2719 31.1274L51.2906 30.9351ZM49.9688 40.7812H56.9375V39.7812H49.9688V40.7812ZM56.5822 39.9294L54.9885 41.5388L55.699 42.2424L57.2928 40.6331L56.5822 39.9294ZM55.4071 41.3947C53.0461 41.093 51.4063 40.9375 50.5156 40.9375V41.9375C51.3333 41.9375 52.9122 42.0841 55.2804 42.3866L55.4071 41.3947ZM50.5156 40.9375H49.7344V41.9375H50.5156V40.9375ZM49.2436 41.3421L48.9154 43.0296L49.8971 43.2204L50.2252 41.5329L49.2436 41.3421ZM48.9152 43.0306C48.5583 44.8869 48.0193 46.3215 47.3195 47.3615L48.1492 47.9198C48.9494 46.7306 49.5251 45.1547 49.8973 43.2194L48.9152 43.0306ZM47.319 47.3624C46.6294 48.3919 45.4947 49.4477 43.8795 50.5211L44.433 51.3539C46.1094 50.2398 47.3602 49.0977 48.1498 47.9189L47.319 47.3624ZM44.1365 51.4371L51.6365 51.734L51.676 50.7348L44.176 50.4379L44.1365 51.4371ZM51.642 51.7342L53.2826 51.781L53.3112 50.7815L51.6705 50.7346L51.642 51.7342ZM53.2969 51.7812C55.1208 51.7812 56.8168 51.1459 58.3738 49.9069L57.7512 49.1244C56.3499 50.2395 54.8688 50.7812 53.2969 50.7812V51.7812ZM57.572 49.4187L57.322 50.6844L58.303 50.8781L58.553 49.6125L57.572 49.4187ZM57.457 50.4297C55.6518 52.2553 54.0386 53.0781 52.6094 53.0781V54.0781C54.4302 54.0781 56.2857 53.0364 58.168 51.1328L57.457 50.4297ZM52.6202 53.0782L51.9015 53.0626L51.8798 54.0624L52.5985 54.078L52.6202 53.0782ZM51.9113 53.0629L38.3019 52.5004L38.2606 53.4996L51.87 54.0621L51.9113 53.0629ZM72.2031 44.5156L71.7221 44.3791L71.5415 45.0156H72.2031V44.5156ZM72.8594 42.2031V41.7031H72.4815L72.3784 42.0666L72.8594 42.2031ZM79.9844 42.2031L80.4654 42.3396L80.646 41.7031H79.9844V42.2031ZM79.3281 44.5156V45.0156H79.706L79.8091 44.6521L79.3281 44.5156ZM72.6841 44.6521L73.3404 42.3396L72.3784 42.0666L71.7221 44.3791L72.6841 44.6521ZM72.8594 42.7031H79.9844V41.7031H72.8594V42.7031ZM79.5034 42.0666L78.8471 44.3791L79.8091 44.6521L80.4654 42.3396L79.5034 42.0666ZM79.3281 44.0156H72.2031V45.0156H79.3281V44.0156ZM90.0938 53L89.733 52.6538L88.9568 53.4627L90.0773 53.4997L90.0938 53ZM92.3125 50.6875V50.1875H92.0993L91.9517 50.3413L92.3125 50.6875ZM97.4219 45.4375L97.912 45.5365L97.9122 45.5352L97.4219 45.4375ZM99.0156 37.4375L99.506 37.5352L99.5061 37.5347L99.0156 37.4375ZM102.25 31.5938L102.586 31.964L102.587 31.9629L102.25 31.5938ZM111.328 30.3125L111.818 30.4109L111.891 30.0499L111.568 29.8736L111.328 30.3125ZM110.547 34.2031V34.7031H110.956L111.037 34.3016L110.547 34.2031ZM109.547 34.2031L109.05 34.1458L108.986 34.7031H109.547V34.2031ZM102.641 35.6719L103.131 35.7699L103.131 35.7691L102.641 35.6719ZM101.203 42.8594L100.713 42.7613L100.713 42.7622L101.203 42.8594ZM99.4062 47.8281L98.9902 47.5508L98.9885 47.5534L99.4062 47.8281ZM95.8438 50.9062L95.6012 50.469L93.9664 51.3761L95.8357 51.4062L95.8438 50.9062ZM104.578 51.0469L104.57 51.5469H104.578V51.0469ZM111.203 49.2969L111.693 49.3949L111.918 48.2733L110.942 48.8704L111.203 49.2969ZM110.969 50.4688L111.3 50.843L111.426 50.7316L111.459 50.5668L110.969 50.4688ZM107.672 52.9531L107.89 53.4029L107.893 53.4016L107.672 52.9531ZM104.766 53.4844L104.749 53.9841L104.757 53.9844H104.766V53.4844ZM90.4545 53.3462L92.6733 51.0337L91.9517 50.3413L89.733 52.6538L90.4545 53.3462ZM92.3125 51.1875H93.2188V50.1875H92.3125V51.1875ZM93.2188 51.1875C94.5538 51.1875 95.6302 50.797 96.3285 49.921L95.5465 49.2977C95.0989 49.8592 94.3628 50.1875 93.2188 50.1875V51.1875ZM96.3285 49.921C96.9832 49.0996 97.4949 47.6011 97.912 45.5365L96.9318 45.3385C96.5155 47.3989 96.0376 48.6816 95.5465 49.2977L96.3285 49.921ZM97.9122 45.5352L99.506 37.5352L98.5253 37.3398L96.9315 45.3398L97.9122 45.5352ZM99.5061 37.5347C99.9553 35.2689 100.983 33.4189 102.586 31.964L101.914 31.2235C100.142 32.8311 99.0135 34.8769 98.5252 37.3403L99.5061 37.5347ZM102.587 31.9629C104.189 30.4994 105.988 29.7812 108 29.7812V28.7812C105.721 28.7812 103.686 29.6048 101.913 31.2246L102.587 31.9629ZM108 29.7812C108.843 29.7812 109.868 30.0856 111.089 30.7514L111.568 29.8736C110.267 29.1644 109.073 28.7812 108 28.7812V29.7812ZM110.838 30.2141L110.057 34.1047L111.037 34.3016L111.818 30.4109L110.838 30.2141ZM110.547 33.7031H109.547V34.7031H110.547V33.7031ZM110.044 34.2604C110.076 33.9795 110.094 33.7348 110.094 33.5312H109.094C109.094 33.6819 109.08 33.885 109.05 34.1458L110.044 34.2604ZM110.094 33.5312C110.094 32.4813 109.822 31.603 109.192 30.9924C108.564 30.3847 107.667 30.125 106.594 30.125V31.125C107.521 31.125 108.123 31.3496 108.496 31.7107C108.866 32.0689 109.094 32.6437 109.094 33.5312H110.094ZM106.594 30.125C105.441 30.125 104.48 30.6281 103.735 31.5784C103.007 32.5078 102.491 33.857 102.15 35.5747L103.131 35.7691C103.457 34.1222 103.933 32.948 104.523 32.195C105.096 31.463 105.778 31.125 106.594 31.125V30.125ZM102.15 35.5738L100.713 42.7613L101.693 42.9574L103.131 35.7699L102.15 35.5738ZM100.713 42.7622C100.292 44.8873 99.7097 46.4716 98.9902 47.5508L99.8223 48.1055C100.644 46.8722 101.26 45.1439 101.694 42.9565L100.713 42.7622ZM98.9885 47.5534C98.2848 48.6234 97.1677 49.5998 95.6012 50.469L96.0863 51.3435C97.7489 50.421 99.0069 49.3454 99.824 48.1029L98.9885 47.5534ZM95.8357 51.4062L104.57 51.5468L104.586 50.5469L95.8518 50.4063L95.8357 51.4062ZM104.578 51.5469C107.169 51.5469 109.47 50.9438 111.464 49.7233L110.942 48.8704C109.124 49.9832 107.008 50.5469 104.578 50.5469V51.5469ZM110.713 49.1988L110.478 50.3707L111.459 50.5668L111.693 49.3949L110.713 49.1988ZM110.637 50.0945C109.179 51.3857 108.124 52.1726 107.451 52.5047L107.893 53.4016C108.699 53.0044 109.841 52.1351 111.3 50.843L110.637 50.0945ZM107.453 52.5034C106.817 52.8123 105.932 52.9844 104.766 52.9844V53.9844C106.016 53.9844 107.068 53.8023 107.89 53.4029L107.453 52.5034ZM104.782 52.9846L90.1102 52.5003L90.0773 53.4997L104.749 53.9841L104.782 52.9846ZM128.078 48.7344L128.569 48.83L128.803 47.6289L127.795 48.3224L128.078 48.7344ZM127.844 49.9375L128.129 50.3481L128.296 50.2323L128.335 50.0331L127.844 49.9375ZM115.766 51.8438L115.39 52.1741L115.394 52.178L115.766 51.8438ZM117.766 39.5312L118.143 39.8596L118.143 39.8589L117.766 39.5312ZM127.219 36.5781L126.85 36.916L127.219 36.5781ZM117.703 46.3281V45.8281H117.214L117.203 46.317L117.703 46.3281ZM117.688 47.0312L117.188 47.0201V47.0312H117.688ZM117.734 45.3594L117.237 45.3077L117.175 45.9059L117.774 45.8578L117.734 45.3594ZM123.203 43.5625L123.508 43.9587L123.51 43.9572L123.203 43.5625ZM119.812 39.7188L120.221 40.0067L120.222 40.0055L119.812 39.7188ZM127.587 48.6388L127.353 49.8419L128.335 50.0331L128.569 48.83L127.587 48.6388ZM127.558 49.5269C124.275 51.8085 121.556 52.8906 119.375 52.8906V53.8906C121.861 53.8906 124.787 52.6707 128.129 50.3481L127.558 49.5269ZM119.375 52.8906C118.027 52.8906 116.963 52.4276 116.137 51.5095L115.394 52.178C116.423 53.3224 117.765 53.8906 119.375 53.8906V52.8906ZM116.141 51.5134C115.319 50.5795 114.891 49.3606 114.891 47.8125H113.891C113.891 49.5561 114.379 51.0247 115.39 52.1741L116.141 51.5134ZM114.891 47.8125C114.891 45.0154 115.958 42.368 118.143 39.8596L117.389 39.2029C115.073 41.8612 113.891 44.7346 113.891 47.8125H114.891ZM118.143 39.8589C120.333 37.3348 122.607 36.1406 124.969 36.1406V35.1406C122.226 35.1406 119.698 36.5402 117.388 39.2036L118.143 39.8589ZM124.969 36.1406C125.77 36.1406 126.381 36.4046 126.85 36.916L127.587 36.2403C126.91 35.5016 126.021 35.1406 124.969 35.1406V36.1406ZM126.85 36.916C127.324 37.4326 127.578 38.1169 127.578 39.0156H128.578C128.578 37.9144 128.26 36.9737 127.587 36.2403L126.85 36.916ZM127.578 39.0156C127.578 40.8123 126.674 42.3931 124.728 43.763L125.303 44.5807C127.441 43.0757 128.578 41.2189 128.578 39.0156H127.578ZM124.728 43.763C122.781 45.1334 120.448 45.8281 117.703 45.8281V46.8281C120.625 46.8281 123.166 46.0853 125.303 44.5807L124.728 43.763ZM117.203 46.317L117.188 47.0201L118.187 47.0424L118.203 46.3392L117.203 46.317ZM117.188 47.0312C117.188 48.5984 117.472 49.8643 118.12 50.7487C118.79 51.662 119.79 52.0938 121.031 52.0938V51.0938C120.043 51.0938 119.372 50.765 118.927 50.1576C118.46 49.5211 118.188 48.5058 118.188 47.0312H117.188ZM121.031 52.0938C123.11 52.0938 125.562 51.0721 128.362 49.1463L127.795 48.3224C125.052 50.2091 122.806 51.0938 121.031 51.0938V52.0938ZM117.774 45.8578C120.166 45.6656 122.094 45.0477 123.508 43.9587L122.898 43.1663C121.688 44.0981 119.969 44.6782 117.694 44.861L117.774 45.8578ZM123.51 43.9572C124.94 42.8449 125.672 41.3835 125.672 39.6094H124.672C124.672 41.0644 124.091 42.2384 122.896 43.1678L123.51 43.9572ZM125.672 39.6094C125.672 38.7669 125.522 38.0449 125.143 37.5228C124.743 36.9709 124.144 36.7188 123.438 36.7188V37.7188C123.887 37.7188 124.156 37.865 124.334 38.11C124.533 38.3848 124.672 38.8581 124.672 39.6094H125.672ZM123.438 36.7188C121.943 36.7188 120.604 37.7167 119.403 39.432L120.222 40.0055C121.355 38.3875 122.432 37.7188 123.438 37.7188V36.7188ZM119.404 39.4308C118.186 41.1601 117.464 43.1224 117.237 45.3077L118.232 45.4111C118.442 43.388 119.106 41.5899 120.221 40.0067L119.404 39.4308ZM143.969 44.5156L144.459 44.6129L144.578 44.0156H143.969V44.5156ZM143.688 44.5156V44.0156H143.364L143.232 44.3104L143.688 44.5156ZM139.438 50.9219L139.79 51.2765L139.791 51.2754L139.438 50.9219ZM135.109 40.3594L135.494 40.6791L135.494 40.6788L135.109 40.3594ZM148.938 36.0312L149.423 36.1494L149.562 35.5778L148.976 35.5327L148.938 36.0312ZM147.812 40.6562L147.327 40.5381L147.324 40.5489L147.322 40.5599L147.812 40.6562ZM146.297 48.375L146.787 48.4722L146.788 48.4713L146.297 48.375ZM151.516 48.2656L152.007 48.3606L152.349 46.5925L151.144 47.9311L151.516 48.2656ZM151.234 49.7188L151.6 50.0596L151.698 49.9546L151.725 49.8138L151.234 49.7188ZM143.203 48.375L143.693 48.4731L143.694 48.4723L143.203 48.375ZM145.219 38.2656L145.709 38.3629L145.787 37.971L145.422 37.8087L145.219 38.2656ZM136.781 40.9844L136.329 40.7702L136.329 40.7715L136.781 40.9844ZM140.078 48.2656L139.706 47.9322L139.705 47.9323L140.078 48.2656ZM144.516 41.8125L144.958 42.0452L144.992 41.981L145.006 41.9097L144.516 41.8125ZM143.969 44.0156H143.688V45.0156H143.969V44.0156ZM143.232 44.3104C142.074 46.8817 140.689 48.9633 139.084 50.5683L139.791 51.2754C141.499 49.568 142.947 47.3787 144.143 44.7209L143.232 44.3104ZM139.085 50.5672C137.467 52.1746 136.036 52.8906 134.781 52.8906V53.8906C136.423 53.8906 138.095 52.9608 139.79 51.2765L139.085 50.5672ZM134.781 52.8906C133.793 52.8906 133.131 52.587 132.699 52.0472C132.251 51.486 131.984 50.5873 131.984 49.2656H130.984C130.984 50.694 131.268 51.8577 131.918 52.6715C132.586 53.5067 133.572 53.8906 134.781 53.8906V52.8906ZM131.984 49.2656C131.984 46.3778 133.133 43.5183 135.494 40.6791L134.725 40.0397C132.253 43.0129 130.984 46.091 130.984 49.2656H131.984ZM135.494 40.6788C137.908 37.7716 140.824 36.3438 144.266 36.3438V35.3438C140.499 35.3438 137.31 36.9263 134.725 40.0399L135.494 40.6788ZM144.266 36.3438C145.741 36.3438 147.286 36.4057 148.899 36.5298L148.976 35.5327C147.339 35.4068 145.769 35.3438 144.266 35.3438V36.3438ZM148.452 35.9131L147.327 40.5381L148.298 40.7744L149.423 36.1494L148.452 35.9131ZM147.322 40.5599L145.806 48.2787L146.788 48.4713L148.303 40.7526L147.322 40.5599ZM145.806 48.2778C145.57 49.4726 145.438 50.3056 145.438 50.7188H146.438C146.438 50.4235 146.545 49.6941 146.787 48.4722L145.806 48.2778ZM145.438 50.7188C145.438 51.1161 145.53 51.5072 145.803 51.7988C146.082 52.0966 146.466 52.2031 146.859 52.2031V51.2031C146.638 51.2031 146.561 51.1455 146.533 51.1153C146.499 51.0788 146.438 50.9777 146.438 50.7188H145.438ZM146.859 52.2031C147.546 52.2031 148.303 51.8355 149.102 51.246C149.916 50.6449 150.845 49.758 151.887 48.6001L151.144 47.9311C150.124 49.0649 149.246 49.8968 148.508 50.4415C147.754 50.9978 147.215 51.2031 146.859 51.2031V52.2031ZM151.025 48.1706L150.743 49.6237L151.725 49.8138L152.007 48.3606L151.025 48.1706ZM150.869 49.3779C148.609 51.8026 146.688 52.8906 145.094 52.8906V53.8906C147.124 53.8906 149.297 52.5307 151.6 50.0596L150.869 49.3779ZM145.094 52.8906C144.421 52.8906 144.007 52.7165 143.755 52.4545C143.5 52.1886 143.328 51.7456 143.328 51.0312H142.328C142.328 51.8898 142.534 52.6265 143.034 53.1471C143.537 53.6715 144.256 53.8906 145.094 53.8906V52.8906ZM143.328 51.0312C143.328 50.5653 143.443 49.7238 143.693 48.4731L142.713 48.2769C142.463 49.5262 142.328 50.4555 142.328 51.0312H143.328ZM143.694 48.4723L144.459 44.6129L143.478 44.4183L142.713 48.2777L143.694 48.4723ZM145.422 37.8087C144.053 37.2004 142.687 36.8906 141.328 36.8906V37.8906C142.531 37.8906 143.759 38.1642 145.016 38.7225L145.422 37.8087ZM141.328 36.8906C139.163 36.8906 137.509 38.2805 136.329 40.7702L137.233 41.1985C138.324 38.8965 139.701 37.8906 141.328 37.8906V36.8906ZM136.329 40.7715C134.976 43.6473 134.281 46.2683 134.281 48.625H135.281C135.281 46.4608 135.92 43.9881 137.234 41.1973L136.329 40.7715ZM134.281 48.625C134.281 49.4752 134.403 50.1949 134.709 50.7176C135.04 51.2817 135.565 51.5781 136.219 51.5781V50.5781C135.915 50.5781 135.721 50.4657 135.572 50.2121C135.399 49.9171 135.281 49.4102 135.281 48.625H134.281ZM136.219 51.5781C136.827 51.5781 137.48 51.2675 138.15 50.7791C138.833 50.2812 139.601 49.5495 140.451 48.599L139.705 47.9323C138.879 48.8568 138.164 49.5313 137.561 49.9709C136.945 50.42 136.506 50.5781 136.219 50.5781V51.5781ZM140.451 48.5991C142.168 46.6808 143.67 44.4954 144.958 42.0452L144.073 41.5798C142.82 43.963 141.364 46.0796 139.706 47.9322L140.451 48.5991ZM145.006 41.9097L145.709 38.3629L144.728 38.1684L144.025 41.7153L145.006 41.9097ZM154.406 53.1875L153.92 53.0707L153.763 53.7247L154.435 53.6867L154.406 53.1875ZM155.562 48.375L156.049 48.4918L156.051 48.4821L156.053 48.4723L155.562 48.375ZM157.078 40.7344L156.588 40.635L156.588 40.6371L157.078 40.7344ZM151.641 40.9219L151.151 40.8228L150.776 42.6747L152.018 41.2504L151.641 40.9219ZM151.922 39.5312L151.555 39.1912L151.46 39.2943L151.432 39.4321L151.922 39.5312ZM160.156 40.75L159.666 40.6509L159.666 40.6523L160.156 40.75ZM159.406 44.5156L158.916 44.418L158.797 45.0156H159.406V44.5156ZM159.609 44.5156V45.0156H159.925L160.061 44.7305L159.609 44.5156ZM164 38.1406L164.349 38.4986L164.349 38.4985L164 38.1406ZM170.609 36.1406L171.012 36.4378L171.348 35.9828L170.855 35.705L170.609 36.1406ZM168.531 38.9531L168.256 39.3702L168.651 39.6319L168.933 39.2503L168.531 38.9531ZM158.859 47.2969L158.424 47.0508L158.385 47.1204L158.369 47.1988L158.859 47.2969ZM157.719 53L157.747 53.4992L158.133 53.4773L158.209 53.0981L157.719 53ZM154.892 53.3043L156.049 48.4918L155.076 48.2582L153.92 53.0707L154.892 53.3043ZM156.053 48.4723L157.569 40.8317L156.588 40.6371L155.072 48.2777L156.053 48.4723ZM157.568 40.8337C157.729 40.042 157.812 39.3405 157.812 38.7344H156.812C156.812 39.2533 156.74 39.8851 156.588 40.635L157.568 40.8337ZM157.812 38.7344C157.812 38.2437 157.73 37.7866 157.488 37.4405C157.224 37.0616 156.824 36.8906 156.375 36.8906V37.8906C156.551 37.8906 156.62 37.9436 156.668 38.0127C156.739 38.1144 156.812 38.3292 156.812 38.7344H157.812ZM156.375 36.8906C155.659 36.8906 154.88 37.2642 154.064 37.8726C153.235 38.491 152.301 39.4031 151.264 40.5933L152.018 41.2504C153.032 40.0865 153.913 39.2329 154.662 38.6742C155.425 38.1056 155.987 37.8906 156.375 37.8906V36.8906ZM152.131 41.021L152.412 39.6304L151.432 39.4321L151.151 40.8228L152.131 41.021ZM152.288 39.8713C154.683 37.2902 156.643 36.1406 158.188 36.1406V35.1406C156.19 35.1406 153.973 36.5848 151.555 39.1912L152.288 39.8713ZM158.188 36.1406C158.841 36.1406 159.246 36.3248 159.498 36.6139C159.762 36.9161 159.938 37.421 159.938 38.2188H160.938C160.938 37.2977 160.738 36.5136 160.252 35.9564C159.754 35.3862 159.034 35.1406 158.188 35.1406V36.1406ZM159.938 38.2188C159.938 38.939 159.849 39.7489 159.666 40.6509L160.646 40.8491C160.839 39.8969 160.938 39.0193 160.938 38.2188H159.938ZM159.666 40.6523L158.916 44.418L159.897 44.6133L160.647 40.8477L159.666 40.6523ZM159.406 45.0156H159.609V44.0156H159.406V45.0156ZM160.061 44.7305C161.281 42.1682 162.712 40.0951 164.349 38.4986L163.651 37.7827C161.913 39.4778 160.417 41.6547 159.158 44.3007L160.061 44.7305ZM164.349 38.4985C166.014 36.8748 167.445 36.1562 168.656 36.1562V35.1562C167.055 35.1562 165.382 36.094 163.651 37.7827L164.349 38.4985ZM168.656 36.1562C169.309 36.1562 169.874 36.3 170.364 36.5762L170.855 35.705C170.199 35.3354 169.462 35.1562 168.656 35.1562V36.1562ZM170.207 35.8435L168.129 38.656L168.933 39.2503L171.012 36.4378L170.207 35.8435ZM168.807 38.536C168.163 38.1104 167.542 37.8438 166.969 37.8438V38.8438C167.25 38.8438 167.67 38.9834 168.256 39.3702L168.807 38.536ZM166.969 37.8438C165.724 37.8438 164.411 38.7405 163.047 40.2464C161.66 41.7784 160.119 44.0533 158.424 47.0508L159.295 47.543C160.975 44.5717 162.473 42.37 163.789 40.9177C165.128 39.4392 166.182 38.8438 166.969 38.8438V37.8438ZM158.369 47.1988L157.228 52.9019L158.209 53.0981L159.35 47.3949L158.369 47.1988ZM157.69 52.5008L154.378 52.6883L154.435 53.6867L157.747 53.4992L157.69 52.5008ZM172.234 53.1875L171.748 53.0707L171.591 53.7249L172.263 53.6867L172.234 53.1875ZM173.391 48.375L173.877 48.4918L173.879 48.4821L173.881 48.4723L173.391 48.375ZM174.922 40.6562L174.432 40.5582L174.431 40.559L174.922 40.6562ZM169.703 40.7656L169.212 40.6696L168.87 42.4192L170.072 41.1028L169.703 40.7656ZM169.984 39.3281L169.618 38.9881L169.521 39.0924L169.494 39.2321L169.984 39.3281ZM178.016 40.6562L178.506 40.7535L178.507 40.7511L178.016 40.6562ZM177.25 44.5156L176.76 44.4183L176.641 45.0156H177.25V44.5156ZM177.484 44.5156V45.0156H177.797L177.934 44.735L177.484 44.5156ZM181.891 38.0938L182.242 38.4496L182.242 38.4495L181.891 38.0938ZM188.781 40.75L188.291 40.6519L188.291 40.6525L188.781 40.75ZM187.266 48.375L186.775 48.2775L186.775 48.2778L187.266 48.375ZM192.5 48.2656L192.99 48.3657L193.356 46.574L192.129 47.9302L192.5 48.2656ZM192.203 49.7188L192.57 50.0588L192.665 49.9561L192.693 49.8188L192.203 49.7188ZM184.188 48.375L184.678 48.4731L184.678 48.4721L184.188 48.375ZM185.703 40.7188L185.214 40.6157L185.213 40.6217L185.703 40.7188ZM176.672 47.4219L176.236 47.1778L176.198 47.2456L176.182 47.3217L176.672 47.4219ZM175.531 53L175.56 53.4992L175.944 53.4773L176.021 53.1002L175.531 53ZM172.721 53.3043L173.877 48.4918L172.904 48.2582L171.748 53.0707L172.721 53.3043ZM173.881 48.4723L175.412 40.7535L174.431 40.559L172.9 48.2777L173.881 48.4723ZM175.412 40.7543C175.649 39.5687 175.781 38.7361 175.781 38.3125H174.781C174.781 38.618 174.674 39.348 174.432 40.5582L175.412 40.7543ZM175.781 38.3125C175.781 37.9185 175.688 37.5302 175.413 37.2413C175.134 36.9477 174.75 36.8438 174.359 36.8438V37.8438C174.583 37.8438 174.661 37.9013 174.689 37.9306C174.721 37.9646 174.781 38.0606 174.781 38.3125H175.781ZM174.359 36.8438C173.683 36.8438 172.93 37.2109 172.134 37.7963C171.32 38.3941 170.386 39.2762 169.334 40.4284L170.072 41.1028C171.103 39.9738 171.987 39.1449 172.726 38.6021C173.481 38.0469 174.015 37.8438 174.359 37.8438V36.8438ZM170.194 40.8616L170.475 39.4241L169.494 39.2321L169.212 40.6696L170.194 40.8616ZM170.351 39.6682C172.599 37.2445 174.52 36.1562 176.125 36.1562V35.1562C174.084 35.1562 171.911 36.5159 169.618 38.9881L170.351 39.6682ZM176.125 36.1562C176.793 36.1562 177.203 36.329 177.452 36.5885C177.704 36.8517 177.875 37.2908 177.875 38H178.875C178.875 37.1467 178.671 36.4139 178.173 35.8959C177.672 35.3741 176.957 35.1562 176.125 35.1562V36.1562ZM177.875 38C177.875 38.4786 177.764 39.3222 177.525 40.5614L178.507 40.7511C178.746 39.5112 178.875 38.5839 178.875 38H177.875ZM177.525 40.559L176.76 44.4183L177.74 44.6129L178.506 40.7535L177.525 40.559ZM177.25 45.0156H177.484V44.0156H177.25V45.0156ZM177.934 44.735C179.218 42.105 180.656 40.0149 182.242 38.4496L181.539 37.7379C179.854 39.4018 178.355 41.5929 177.035 44.2962L177.934 44.735ZM182.242 38.4495C183.851 36.8613 185.261 36.1562 186.484 36.1562V35.1562C184.874 35.1562 183.222 36.0762 181.539 37.738L182.242 38.4495ZM186.484 36.1562C187.247 36.1562 187.732 36.3655 188.035 36.7019C188.347 37.0482 188.547 37.617 188.547 38.5H189.547C189.547 37.4871 189.32 36.6341 188.778 36.0325C188.227 35.4209 187.43 35.1562 186.484 35.1562V36.1562ZM188.547 38.5C188.547 39.0703 188.464 39.7853 188.291 40.6519L189.272 40.8481C189.452 39.9439 189.547 39.1589 189.547 38.5H188.547ZM188.291 40.6525L186.775 48.2775L187.756 48.4725L189.272 40.8475L188.291 40.6525ZM186.775 48.2778C186.538 49.4726 186.406 50.3056 186.406 50.7188H187.406C187.406 50.4235 187.514 49.6941 187.756 48.4722L186.775 48.2778ZM186.406 50.7188C186.406 51.1161 186.499 51.5072 186.772 51.7988C187.051 52.0966 187.435 52.2031 187.828 52.2031V51.2031C187.607 51.2031 187.53 51.1455 187.502 51.1153C187.468 51.0788 187.406 50.9777 187.406 50.7188H186.406ZM187.828 52.2031C188.514 52.2031 189.273 51.8358 190.074 51.2465C190.89 50.6455 191.823 49.7589 192.871 48.601L192.129 47.9302C191.104 49.064 190.222 49.8961 189.481 50.441C188.725 50.9976 188.184 51.2031 187.828 51.2031V52.2031ZM192.01 48.1655L191.713 49.6187L192.693 49.8188L192.99 48.3657L192.01 48.1655ZM191.837 49.3787C189.588 51.8023 187.667 52.8906 186.062 52.8906V53.8906C188.103 53.8906 190.276 52.531 192.57 50.0588L191.837 49.3787ZM186.062 52.8906C185.396 52.8906 184.986 52.717 184.737 52.4557C184.483 52.19 184.312 51.7464 184.312 51.0312H183.312C183.312 51.889 183.517 52.6252 184.013 53.1458C184.514 53.671 185.229 53.8906 186.062 53.8906V52.8906ZM184.312 51.0312C184.312 50.5653 184.428 49.7238 184.678 48.4731L183.697 48.2769C183.447 49.5262 183.312 50.4555 183.312 51.0312H184.312ZM184.678 48.4721L186.194 40.8158L185.213 40.6217L183.697 48.2779L184.678 48.4721ZM186.192 40.8218C186.321 40.209 186.391 39.6721 186.391 39.2188H185.391C185.391 39.5779 185.335 40.041 185.214 40.6157L186.192 40.8218ZM186.391 39.2188C186.391 38.7498 186.306 38.3072 186.058 37.9719C185.789 37.6086 185.39 37.4531 184.953 37.4531V38.4531C185.141 38.4531 185.211 38.5086 185.254 38.5671C185.319 38.6538 185.391 38.844 185.391 39.2188H186.391ZM184.953 37.4531C184.323 37.4531 183.682 37.702 183.04 38.1285C182.396 38.5561 181.721 39.1828 181.014 39.9911C179.6 41.6076 178.008 44.0096 176.236 47.1778L177.108 47.666C178.867 44.5216 180.42 42.1892 181.767 40.6495C182.44 39.8797 183.049 39.3228 183.593 38.9614C184.139 38.5988 184.588 38.4531 184.953 38.4531V37.4531ZM176.182 47.3217L175.041 52.8998L176.021 53.1002L177.162 47.522L176.182 47.3217ZM175.503 52.5008L172.206 52.6883L172.263 53.6867L175.56 53.4992L175.503 52.5008ZM204.625 48.2656L205.116 48.3606L205.456 46.6011L204.254 47.9302L204.625 48.2656ZM204.344 49.7188L204.71 50.0596L204.807 49.9546L204.835 49.8138L204.344 49.7188ZM196.312 48.4062L195.822 48.309L195.822 48.3098L196.312 48.4062ZM197.391 42.9688L197.881 43.066L197.882 43.0617L197.391 42.9688ZM194.297 39.125L193.806 39.03L193.649 39.8428L194.441 39.6037L194.297 39.125ZM194.484 38.1562L194.329 37.681L194.049 37.7725L193.993 38.0612L194.484 38.1562ZM202.125 35.6562L202.611 35.7718L202.818 34.9035L201.97 35.181L202.125 35.6562ZM200.938 40.6562L200.451 40.5407L200.449 40.5498L200.447 40.559L200.938 40.6562ZM199.406 48.375L198.916 48.2777V48.2778L199.406 48.375ZM198.891 32.9375L198.442 32.7165L197.771 34.0796L199.12 33.3816L198.891 32.9375ZM199.938 30.8125L199.664 30.3938L199.55 30.4686L199.489 30.5915L199.938 30.8125ZM204.344 27.9375L204.797 28.1492L205.539 26.5604L204.071 27.5188L204.344 27.9375ZM203 30.8125L203.23 31.2566L203.381 31.1784L203.453 31.0242L203 30.8125ZM204.134 48.1706L203.853 49.6237L204.835 49.8138L205.116 48.3606L204.134 48.1706ZM203.978 49.3779C201.718 51.8026 199.797 52.8906 198.203 52.8906V53.8906C200.234 53.8906 202.407 52.5307 204.71 50.0596L203.978 49.3779ZM198.203 52.8906C197.536 52.8906 197.127 52.717 196.877 52.4557C196.624 52.19 196.453 51.7464 196.453 51.0312H195.453C195.453 51.889 195.657 52.6252 196.154 53.1458C196.655 53.671 197.37 53.8906 198.203 53.8906V52.8906ZM196.453 51.0312C196.453 50.5533 196.564 49.7204 196.803 48.5027L195.822 48.3098C195.582 49.5296 195.453 50.4467 195.453 51.0312H196.453ZM196.803 48.5035L197.881 43.066L196.9 42.8715L195.822 48.309L196.803 48.5035ZM197.882 43.0617C198.172 41.5287 198.328 40.456 198.328 39.8906H197.328C197.328 40.3461 197.193 41.3254 196.899 42.8758L197.882 43.0617ZM198.328 39.8906C198.328 39.4025 198.236 38.9446 197.97 38.6003C197.684 38.2316 197.267 38.0781 196.812 38.0781V39.0781C197.035 39.0781 197.126 39.1434 197.179 39.2122C197.251 39.3054 197.328 39.5037 197.328 39.8906H198.328ZM196.812 38.0781C196.26 38.0781 195.354 38.2837 194.152 38.6463L194.441 39.6037C195.656 39.2371 196.428 39.0781 196.812 39.0781V38.0781ZM194.788 39.22L194.975 38.2513L193.993 38.0612L193.806 39.03L194.788 39.22ZM194.64 38.6315L202.28 36.1315L201.97 35.181L194.329 37.681L194.64 38.6315ZM201.639 35.5407L200.451 40.5407L201.424 40.7718L202.611 35.7718L201.639 35.5407ZM200.447 40.559L198.916 48.2777L199.897 48.4723L201.428 40.7535L200.447 40.559ZM198.916 48.2778C198.679 49.4705 198.547 50.2946 198.547 50.6875H199.547C199.547 50.4137 199.654 49.6961 199.897 48.4722L198.916 48.2778ZM198.547 50.6875C198.547 51.0918 198.638 51.4883 198.907 51.7853C199.185 52.0914 199.571 52.2031 199.969 52.2031V51.2031C199.752 51.2031 199.677 51.1456 199.648 51.1132C199.61 51.0716 199.547 50.9603 199.547 50.6875H198.547ZM199.969 52.2031C200.65 52.2031 201.406 51.8347 202.203 51.246C203.017 50.6452 203.949 49.7587 204.996 48.601L204.254 47.9302C203.228 49.0642 202.348 49.8965 201.609 50.4415C200.855 50.9986 200.318 51.2031 199.969 51.2031V52.2031ZM199.339 33.1585L200.386 31.0335L199.489 30.5915L198.442 32.7165L199.339 33.1585ZM200.211 31.2312L204.617 28.3562L204.071 27.5188L199.664 30.3938L200.211 31.2312ZM203.891 27.7258L202.547 30.6008L203.453 31.0242L204.797 28.1492L203.891 27.7258ZM202.77 30.3684L198.661 32.4934L199.12 33.3816L203.23 31.2566L202.77 30.3684ZM207.047 53.1875L206.561 53.0707L206.404 53.7249L207.075 53.6867L207.047 53.1875ZM208.203 48.375L208.689 48.4918L208.692 48.4821L208.694 48.4723L208.203 48.375ZM209.734 40.6562L209.244 40.5582L209.244 40.559L209.734 40.6562ZM204.516 40.7656L204.025 40.6696L203.683 42.4192L204.885 41.1028L204.516 40.7656ZM204.797 39.3281L204.43 38.9881L204.334 39.0924L204.306 39.2321L204.797 39.3281ZM212.828 40.6562L213.319 40.7535L213.319 40.7511L212.828 40.6562ZM212.062 44.5156L211.572 44.4183L211.454 45.0156H212.062V44.5156ZM212.297 44.5156V45.0156H212.609L212.746 44.735L212.297 44.5156ZM216.703 38.0938L217.054 38.4496L217.054 38.4495L216.703 38.0938ZM223.594 40.75L223.103 40.6519L223.103 40.6525L223.594 40.75ZM222.078 48.375L221.588 48.2775L221.588 48.2778L222.078 48.375ZM227.312 48.2656L227.802 48.3657L228.168 46.574L226.942 47.9302L227.312 48.2656ZM227.016 49.7188L227.382 50.0588L227.477 49.9561L227.506 49.8188L227.016 49.7188ZM219 48.375L219.49 48.4731L219.49 48.4721L219 48.375ZM220.516 40.7188L220.026 40.6157L220.025 40.6217L220.516 40.7188ZM211.484 47.4219L211.048 47.1778L211.01 47.2456L210.995 47.3217L211.484 47.4219ZM210.344 53L210.372 53.4992L210.756 53.4773L210.834 53.1002L210.344 53ZM207.533 53.3043L208.689 48.4918L207.717 48.2582L206.561 53.0707L207.533 53.3043ZM208.694 48.4723L210.225 40.7535L209.244 40.559L207.713 48.2777L208.694 48.4723ZM210.225 40.7543C210.462 39.5687 210.594 38.7361 210.594 38.3125H209.594C209.594 38.618 209.486 39.348 209.244 40.5582L210.225 40.7543ZM210.594 38.3125C210.594 37.9185 210.5 37.5302 210.225 37.2413C209.946 36.9477 209.563 36.8438 209.172 36.8438V37.8438C209.396 37.8438 209.473 37.9013 209.501 37.9306C209.533 37.9646 209.594 38.0606 209.594 38.3125H210.594ZM209.172 36.8438C208.495 36.8438 207.743 37.2109 206.946 37.7963C206.133 38.3941 205.199 39.2762 204.146 40.4284L204.885 41.1028C205.916 39.9738 206.8 39.1449 207.538 38.6021C208.294 38.0469 208.828 37.8438 209.172 37.8438V36.8438ZM205.006 40.8616L205.288 39.4241L204.306 39.2321L204.025 40.6696L205.006 40.8616ZM205.163 39.6682C207.412 37.2445 209.333 36.1562 210.938 36.1562V35.1562C208.897 35.1562 206.724 36.5159 204.43 38.9881L205.163 39.6682ZM210.938 36.1562C211.605 36.1562 212.015 36.329 212.264 36.5885C212.517 36.8517 212.688 37.2908 212.688 38H213.688C213.688 37.1467 213.483 36.4139 212.986 35.8959C212.485 35.3741 211.77 35.1562 210.938 35.1562V36.1562ZM212.688 38C212.688 38.4786 212.577 39.3222 212.337 40.5614L213.319 40.7511C213.559 39.5112 213.688 38.5839 213.688 38H212.688ZM212.338 40.559L211.572 44.4183L212.553 44.6129L213.319 40.7535L212.338 40.559ZM212.062 45.0156H212.297V44.0156H212.062V45.0156ZM212.746 44.735C214.03 42.105 215.469 40.0149 217.054 38.4496L216.352 37.7379C214.667 39.4018 213.168 41.5929 211.848 44.2962L212.746 44.735ZM217.054 38.4495C218.663 36.8613 220.074 36.1562 221.297 36.1562V35.1562C219.686 35.1562 218.035 36.0762 216.352 37.738L217.054 38.4495ZM221.297 36.1562C222.06 36.1562 222.544 36.3655 222.847 36.7019C223.159 37.0482 223.359 37.617 223.359 38.5H224.359C224.359 37.4871 224.132 36.6341 223.59 36.0325C223.039 35.4209 222.242 35.1562 221.297 35.1562V36.1562ZM223.359 38.5C223.359 39.0703 223.277 39.7853 223.103 40.6519L224.084 40.8481C224.265 39.9439 224.359 39.1589 224.359 38.5H223.359ZM223.103 40.6525L221.588 48.2775L222.569 48.4725L224.084 40.8475L223.103 40.6525ZM221.588 48.2778C221.351 49.4726 221.219 50.3056 221.219 50.7188H222.219C222.219 50.4235 222.326 49.6941 222.569 48.4722L221.588 48.2778ZM221.219 50.7188C221.219 51.1161 221.311 51.5072 221.584 51.7988C221.863 52.0966 222.248 52.2031 222.641 52.2031V51.2031C222.419 51.2031 222.343 51.1455 222.314 51.1153C222.28 51.0788 222.219 50.9777 222.219 50.7188H221.219ZM222.641 52.2031C223.327 52.2031 224.085 51.8358 224.886 51.2465C225.703 50.6455 226.636 49.7589 227.683 48.601L226.942 47.9302C225.916 49.064 225.034 49.8961 224.294 50.441C223.537 50.9976 222.996 51.2031 222.641 51.2031V52.2031ZM226.823 48.1655L226.526 49.6187L227.506 49.8188L227.802 48.3657L226.823 48.1655ZM226.649 49.3787C224.401 51.8023 222.48 52.8906 220.875 52.8906V53.8906C222.916 53.8906 225.089 52.531 227.382 50.0588L226.649 49.3787ZM220.875 52.8906C220.208 52.8906 219.799 52.717 219.549 52.4557C219.296 52.19 219.125 51.7464 219.125 51.0312H218.125C218.125 51.889 218.329 52.6252 218.826 53.1458C219.326 53.671 220.042 53.8906 220.875 53.8906V52.8906ZM219.125 51.0312C219.125 50.5653 219.24 49.7238 219.49 48.4731L218.51 48.2769C218.26 49.5262 218.125 50.4555 218.125 51.0312H219.125ZM219.49 48.4721L221.006 40.8158L220.025 40.6217L218.51 48.2779L219.49 48.4721ZM221.005 40.8218C221.134 40.209 221.203 39.6721 221.203 39.2188H220.203C220.203 39.5779 220.147 40.041 220.026 40.6157L221.005 40.8218ZM221.203 39.2188C221.203 38.7498 221.119 38.3072 220.871 37.9719C220.601 37.6086 220.202 37.4531 219.766 37.4531V38.4531C219.954 38.4531 220.024 38.5086 220.067 38.5671C220.131 38.6538 220.203 38.844 220.203 39.2188H221.203ZM219.766 37.4531C219.136 37.4531 218.494 37.702 217.852 38.1285C217.209 38.5561 216.534 39.1828 215.827 39.9911C214.413 41.6076 212.82 44.0096 211.048 47.1778L211.921 47.666C213.68 44.5216 215.233 42.1892 216.579 40.6495C217.253 39.8797 217.862 39.3228 218.406 38.9614C218.951 38.5988 219.401 38.4531 219.766 38.4531V37.4531ZM210.995 47.3217L209.854 52.8998L210.834 53.1002L211.974 47.522L210.995 47.3217ZM210.315 52.5008L207.018 52.6883L207.075 53.6867L210.372 53.4992L210.315 52.5008ZM230.453 52.75L230.705 53.182L231.504 52.7164L230.677 52.3028L230.453 52.75ZM232.328 40.0469L232.705 40.375L232.706 40.3742L232.328 40.0469ZM245.734 36.0312L246.221 36.1479L246.36 35.5657L245.762 35.532L245.734 36.0312ZM244.625 40.6562L244.139 40.5396L244.137 40.5483L244.135 40.557L244.625 40.6562ZM243.891 44.2812L243.401 44.182L243.4 44.1847L243.891 44.2812ZM243.125 48.5L243.619 48.5766L243.62 48.5739L243.125 48.5ZM241.391 56.1875L240.928 55.9983L240.926 56.0024L241.391 56.1875ZM238.328 60.4062L238.668 60.7728L238.67 60.7713L238.328 60.4062ZM226.406 62.3281L226.672 61.9045L226.669 61.9028L226.406 62.3281ZM242 38.3125L242.491 38.4093L242.565 38.033L242.221 37.8638L242 38.3125ZM234.75 39.25L235.145 39.5567L235.146 39.5558L234.75 39.25ZM232.672 43.5938L232.197 43.4387L232.196 43.4403L232.672 43.5938ZM241.312 41.7969L241.746 42.0454L241.787 41.9742L241.803 41.8937L241.312 41.7969ZM240.766 44.5156L241.26 44.5876L241.344 44.0156H240.766V44.5156ZM240.516 44.5156V44.0156H240.193L240.06 44.31L240.516 44.5156ZM231.688 53.0469L231.612 52.5527L231.498 52.5701L231.403 52.6355L231.688 53.0469ZM229.109 60.9531L229.403 60.5482L229.402 60.5477L229.109 60.9531ZM237.219 59.875L236.818 59.5755L236.816 59.5787L237.219 59.875ZM239.531 53L240.026 53.0723L240.026 53.072L239.531 53ZM230.677 52.3028C229.655 51.7922 229.078 50.7574 229.078 48.9844H228.078C228.078 50.9822 228.751 52.4578 230.23 53.1972L230.677 52.3028ZM229.078 48.9844C229.078 46.0482 230.265 43.1812 232.705 40.375L231.951 39.7188C229.391 42.6625 228.078 45.7539 228.078 48.9844H229.078ZM232.706 40.3742C235.041 37.6782 237.921 36.3438 241.375 36.3438V35.3438C237.621 35.3438 234.469 36.8114 231.95 39.7195L232.706 40.3742ZM241.375 36.3438C242.046 36.3438 243.484 36.4053 245.706 36.5305L245.762 35.532C243.547 35.4072 242.079 35.3438 241.375 35.3438V36.3438ZM245.248 35.9146L244.139 40.5396L245.111 40.7729L246.221 36.1479L245.248 35.9146ZM244.135 40.557L243.401 44.182L244.381 44.3805L245.115 40.7555L244.135 40.557ZM243.4 44.1847C243.025 46.0921 242.768 47.5078 242.63 48.4261L243.62 48.5739C243.753 47.6797 244.006 46.2829 244.381 44.3778L243.4 44.1847ZM242.631 48.4234C242.058 52.122 241.486 54.6315 240.928 55.9983L241.853 56.3767C242.461 54.8893 243.046 52.2739 243.619 48.5766L242.631 48.4234ZM240.926 56.0024C240.387 57.3544 239.417 58.702 237.986 60.0412L238.67 60.7713C240.177 59.3605 241.248 57.8956 241.855 56.3726L240.926 56.0024ZM237.988 60.0397C235.92 61.9582 233.555 62.9062 230.875 62.9062V63.9062C233.82 63.9062 236.424 62.8543 238.668 60.7728L237.988 60.0397ZM230.875 62.9062C229.103 62.9062 227.715 62.5586 226.672 61.9046L226.141 62.7517C227.39 63.5352 228.98 63.9062 230.875 63.9062V62.9062ZM226.669 61.9028C225.64 61.2668 225.188 60.4865 225.188 59.5469H224.188C224.188 60.8989 224.88 61.9728 226.143 62.7534L226.669 61.9028ZM225.188 59.5469C225.188 57.5501 226.876 55.4132 230.705 53.182L230.201 52.318C226.343 54.566 224.188 56.9603 224.188 59.5469H225.188ZM242.221 37.8638C240.911 37.2197 239.591 36.8906 238.266 36.8906V37.8906C239.42 37.8906 240.589 38.1762 241.779 38.7612L242.221 37.8638ZM238.266 36.8906C236.704 36.8906 235.393 37.6004 234.354 38.9442L235.146 39.5558C236.023 38.4204 237.057 37.8906 238.266 37.8906V36.8906ZM234.355 38.9433C233.544 39.9876 232.83 41.4971 232.197 43.4387L233.147 43.7488C233.764 41.857 234.435 40.4708 235.145 39.5567L234.355 38.9433ZM232.196 43.4403C231.572 45.3748 231.25 47.0596 231.25 48.4844H232.25C232.25 47.2008 232.542 45.6252 233.148 43.7472L232.196 43.4403ZM231.25 48.4844C231.25 49.2552 231.369 49.9186 231.675 50.4036C232.005 50.9273 232.519 51.1875 233.141 51.1875V50.1875C232.835 50.1875 232.653 50.0805 232.52 49.8698C232.363 49.6204 232.25 49.1823 232.25 48.4844H231.25ZM233.141 51.1875C234.393 51.1875 235.715 50.3001 237.091 48.8032C238.489 47.2816 240.041 45.0223 241.746 42.0454L240.879 41.5483C239.188 44.4986 237.68 46.6845 236.355 48.1265C235.006 49.5931 233.941 50.1875 233.141 50.1875V51.1875ZM241.803 41.8937L242.491 38.4093L241.509 38.2157L240.822 41.7001L241.803 41.8937ZM240.766 44.0156H240.516V45.0156H240.766V44.0156ZM240.06 44.31C238.975 46.7143 237.686 48.6263 236.199 50.0623L236.894 50.7815C238.491 49.2383 239.848 47.2128 240.971 44.7212L240.06 44.31ZM236.199 50.0623C234.714 51.498 233.184 52.3114 231.612 52.5527L231.763 53.5411C233.586 53.2615 235.297 52.325 236.894 50.7815L236.199 50.0623ZM231.403 52.6355C230.015 53.5943 228.948 54.5364 228.223 55.466C227.497 56.3964 227.094 57.343 227.094 58.2969H228.094C228.094 57.6361 228.372 56.9005 229.011 56.0809C229.651 55.2605 230.63 54.3849 231.972 53.4583L231.403 52.6355ZM227.094 58.2969C227.094 59.5318 227.705 60.5563 228.817 61.3586L229.402 60.5477C228.493 59.8916 228.094 59.1453 228.094 58.2969H227.094ZM228.816 61.358C229.934 62.1683 231.275 62.5625 232.812 62.5625V61.5625C231.454 61.5625 230.326 61.2171 229.403 60.5482L228.816 61.358ZM232.812 62.5625C234.83 62.5625 236.451 61.7622 237.621 60.1713L236.816 59.5787C235.841 60.9045 234.524 61.5625 232.812 61.5625V62.5625ZM237.619 60.1745C238.777 58.627 239.563 56.2366 240.026 53.0723L239.037 52.9277C238.582 56.0342 237.827 58.2272 236.818 59.5755L237.619 60.1745ZM240.026 53.072L241.26 44.5876L240.271 44.4436L239.036 52.928L240.026 53.072ZM278.609 53.5781L278.119 53.4795L277.975 54.1947L278.694 54.0709L278.609 53.5781ZM279.578 48.7656L280.068 48.8643L279.172 48.4741L279.578 48.7656ZM267.75 51.6562L267.368 51.9794L267.37 51.9809L267.75 51.6562ZM267.047 39.9062L266.557 39.804L266.557 39.8056L267.047 39.9062ZM269.25 31.3125L269.728 31.4606L269.899 30.9082L269.327 30.8185L269.25 31.3125ZM263.844 33.0312L264.208 33.3737L264.209 33.3722L263.844 33.0312ZM262.125 37.5938L262.345 38.0428L262.625 37.9056V37.5938H262.125ZM259.094 39.0781L258.595 39.0409L258.53 39.9108L259.314 39.5272L259.094 39.0781ZM272.906 29.875L273.383 30.0266L273.59 29.375H272.906V29.875ZM270.453 50.3906L270.043 50.6762L270.044 50.6783L270.453 50.3906ZM280.188 45.6719L280.64 45.8847L280.666 45.8293L280.678 45.7694L280.188 45.6719ZM283.328 29.875L283.273 29.378L282.909 29.4181L282.838 29.7775L283.328 29.875ZM286.875 29.4844L287.362 29.5996L287.525 28.9098L286.82 28.9874L286.875 29.4844ZM285.688 34.5L285.201 34.3848L285.199 34.3934L285.197 34.4021L285.688 34.5ZM283.453 45.6875L282.963 45.5896L282.963 45.5904L283.453 45.6875ZM286.797 51.2031L287.287 51.3027L287.427 50.6121L286.729 50.7078L286.797 51.2031ZM286.594 52.2031L286.679 52.6959L287.016 52.6378L287.084 52.3027L286.594 52.2031ZM279.1 53.6768L280.068 48.8643L279.088 48.667L278.119 53.4795L279.1 53.6768ZM279.172 48.4741C276.915 51.6191 274.573 53.0781 272.156 53.0781V54.0781C275.031 54.0781 277.637 52.3289 279.984 49.0571L279.172 48.4741ZM272.156 53.0781C270.443 53.0781 269.119 52.4902 268.13 51.3316L267.37 51.9809C268.568 53.3848 270.182 54.0781 272.156 54.0781V53.0781ZM268.132 51.3331C267.133 50.1542 266.609 48.5555 266.609 46.4844H265.609C265.609 48.7257 266.179 50.5749 267.368 51.9794L268.132 51.3331ZM266.609 46.4844C266.609 45.1961 266.912 43.0471 267.537 40.0069L266.557 39.8056C265.932 42.8488 265.609 45.0852 265.609 46.4844H266.609ZM267.536 40.0085C268.169 36.9807 268.899 34.1315 269.728 31.4606L268.772 31.1644C267.934 33.8685 267.196 36.7485 266.557 39.804L267.536 40.0085ZM269.327 30.8185C268.798 30.7355 268.393 30.6875 268.141 30.6875V31.6875C268.305 31.6875 268.639 31.7228 269.173 31.8065L269.327 30.8185ZM268.141 30.6875C266.287 30.6875 264.721 31.3571 263.478 32.6903L264.209 33.3722C265.258 32.2471 266.557 31.6875 268.141 31.6875V30.6875ZM263.479 32.6888C262.238 34.0089 261.625 35.656 261.625 37.5938H262.625C262.625 35.8856 263.158 34.4911 264.208 33.3737L263.479 32.6888ZM261.905 37.1447L258.874 38.6291L259.314 39.5272L262.345 38.0428L261.905 37.1447ZM259.592 39.1154C259.813 36.1655 260.929 34.0123 262.903 32.5805C264.898 31.1336 267.834 30.375 271.781 30.375V29.375C267.728 29.375 264.55 30.1502 262.316 31.771C260.061 33.4069 258.833 35.8553 258.595 39.0409L259.592 39.1154ZM271.781 30.375H272.906V29.375H271.781V30.375ZM272.43 29.7234C271.476 32.7198 270.66 35.851 269.979 39.1168L270.958 39.3207C271.632 36.0865 272.44 32.9885 273.383 30.0266L272.43 29.7234ZM269.979 39.1168C269.301 42.3714 268.953 44.815 268.953 46.4219H269.953C269.953 44.9246 270.282 42.5661 270.958 39.3207L269.979 39.1168ZM268.953 46.4219C268.953 48.168 269.297 49.6043 270.043 50.6762L270.864 50.1051C270.276 49.2603 269.953 48.0508 269.953 46.4219H268.953ZM270.044 50.6783C270.808 51.7646 271.896 52.3125 273.25 52.3125V51.3125C272.208 51.3125 271.431 50.9125 270.862 50.103L270.044 50.6783ZM273.25 52.3125C274.665 52.3125 276.023 51.7017 277.315 50.5626L276.654 49.8124C275.488 50.8399 274.356 51.3125 273.25 51.3125V52.3125ZM277.315 50.5626C278.608 49.4227 279.713 47.8559 280.64 45.8847L279.735 45.4591C278.85 47.342 277.819 48.7856 276.654 49.8124L277.315 50.5626ZM280.678 45.7694L283.819 29.9725L282.838 29.7775L279.697 45.5744L280.678 45.7694ZM283.383 30.372L286.93 29.9814L286.82 28.9874L283.273 29.378L283.383 30.372ZM286.388 29.3692L285.201 34.3848L286.174 34.6152L287.362 29.5996L286.388 29.3692ZM285.197 34.4021L282.963 45.5896L283.943 45.7854L286.178 34.5979L285.197 34.4021ZM282.963 45.5904C282.559 47.6292 282.344 49.0089 282.344 49.6719H283.344C283.344 49.1265 283.535 47.85 283.944 45.7846L282.963 45.5904ZM282.344 49.6719C282.344 50.3422 282.555 50.9254 283.048 51.3256C283.521 51.7097 284.174 51.8594 284.922 51.8594V50.8594C284.284 50.8594 283.898 50.7278 283.678 50.5494C283.479 50.3871 283.344 50.1266 283.344 49.6719H282.344ZM284.922 51.8594C285.443 51.8594 286.093 51.8042 286.865 51.6985L286.729 50.7078C285.98 50.8104 285.38 50.8594 284.922 50.8594V51.8594ZM286.307 51.1036L286.104 52.1036L287.084 52.3027L287.287 51.3027L286.307 51.1036ZM286.509 51.7104L278.525 53.0854L278.694 54.0709L286.679 52.6959L286.509 51.7104ZM290.406 53L290.051 52.6476L289.253 53.4514L290.385 53.4995L290.406 53ZM292.703 50.6875V50.1875H292.495L292.348 50.3351L292.703 50.6875ZM296.266 49.625L296.649 49.9462L296.651 49.9434L296.266 49.625ZM297.906 44.8281L298.396 44.927L298.397 44.9258L297.906 44.8281ZM300.641 31.0938L301.131 31.1914L301.25 30.5938H300.641V31.0938ZM295.438 32.8281L295.765 33.2061L295.767 33.2046L295.438 32.8281ZM293.453 37.6719L293.671 38.1218L293.953 37.9852V37.6719H293.453ZM290.422 39.1406L289.924 39.0999L289.852 39.9722L290.64 39.5906L290.422 39.1406ZM294.141 32.125L294.419 32.5401L294.421 32.5392L294.141 32.125ZM310.891 30.8906L310.666 31.3371L310.667 31.3378L310.891 30.8906ZM305.734 40.9219L305.607 40.4383L303.951 40.874L305.581 41.3979L305.734 40.9219ZM308.469 51.3281L308.734 51.752L308.735 51.7511L308.469 51.3281ZM300.359 53.3906L300.342 53.8903L300.351 53.8906H300.359V53.3906ZM296.656 53.2656L296.635 53.7652L296.639 53.7653L296.656 53.2656ZM302.031 40.5625L301.541 40.4649L301.422 41.0625H302.031V40.5625ZM307.625 38.8594L307.96 39.2309L307.961 39.2293L307.625 38.8594ZM303.969 30.8281V30.3281H303.558L303.478 30.7305L303.969 30.8281ZM296.219 50.9688L295.961 50.5403L294.887 51.1863L296.111 51.457L296.219 50.9688ZM297.844 51.3281L297.736 51.8163L297.738 51.8169L297.844 51.3281ZM306.641 42.9688L306.308 43.3419L306.312 43.3453L306.641 42.9688ZM301.828 41.5469V41.0469H301.417L301.337 41.4505L301.828 41.5469ZM301.484 43.2969L301.975 43.3955L301.975 43.3932L301.484 43.2969ZM290.761 53.3524L293.058 51.0399L292.348 50.3351L290.051 52.6476L290.761 53.3524ZM292.703 51.1875H293.031V50.1875H292.703V51.1875ZM293.031 51.1875C294.643 51.1875 295.911 50.8263 296.649 49.9462L295.882 49.3038C295.433 49.8403 294.545 50.1875 293.031 50.1875V51.1875ZM296.651 49.9434C297.006 49.514 297.314 48.8664 297.594 48.0485C297.877 47.2211 298.144 46.1785 298.396 44.927L297.416 44.7293C297.169 45.9569 296.912 46.9534 296.648 47.7249C296.381 48.5059 296.119 49.0172 295.88 49.3066L296.651 49.9434ZM298.397 44.9258L301.131 31.1914L300.15 30.9961L297.416 44.7305L298.397 44.9258ZM300.641 30.5938C298.402 30.5938 296.542 31.1991 295.108 32.4517L295.767 33.2046C296.979 32.1446 298.588 31.5938 300.641 31.5938V30.5938ZM295.11 32.4502C293.67 33.6972 292.953 35.3387 292.953 37.3281H293.953C293.953 35.6092 294.559 34.2507 295.765 33.2061L295.11 32.4502ZM292.953 37.3281V37.6719H293.953V37.3281H292.953ZM293.235 37.2219L290.204 38.6907L290.64 39.5906L293.671 38.1218L293.235 37.2219ZM290.92 39.1813C291.171 36.1124 292.352 33.9279 294.419 32.5401L293.862 31.7099C291.491 33.3013 290.194 35.7939 289.924 39.0999L290.92 39.1813ZM294.421 32.5392C296.518 31.1212 299.738 30.375 304.156 30.375V29.375C299.658 29.375 296.201 30.1288 293.861 31.7108L294.421 32.5392ZM304.156 30.375C307.291 30.375 309.434 30.7165 310.666 31.3371L311.116 30.4441C309.66 29.7106 307.313 29.375 304.156 29.375V30.375ZM310.667 31.3378C311.273 31.6406 311.703 32.0306 311.986 32.5C312.269 32.9705 312.422 33.5519 312.422 34.2656H313.422C313.422 33.4064 313.236 32.6389 312.842 31.9844C312.448 31.3287 311.863 30.8177 311.114 30.4434L310.667 31.3378ZM312.422 34.2656C312.422 35.7106 311.884 36.9279 310.785 37.9456C309.671 38.9778 307.961 39.8191 305.607 40.4383L305.862 41.4054C308.299 40.7642 310.183 39.866 311.465 38.6794C312.762 37.4783 313.422 35.9978 313.422 34.2656H312.422ZM305.581 41.3979C307.56 42.0335 308.995 42.7726 309.927 43.594C310.847 44.4043 311.266 45.2805 311.266 46.2344H312.266C312.266 44.9383 311.679 43.8041 310.588 42.8435C309.51 41.894 307.93 41.1019 305.887 40.4458L305.581 41.3979ZM311.266 46.2344C311.266 48.023 310.303 49.581 308.202 50.9051L308.735 51.7511C311.03 50.3044 312.266 48.4665 312.266 46.2344H311.266ZM308.204 50.9042C306.102 52.2189 303.496 52.8906 300.359 52.8906V53.8906C303.639 53.8906 306.44 53.1874 308.734 51.752L308.204 50.9042ZM300.376 52.8909L296.673 52.7659L296.639 53.7653L300.342 53.8903L300.376 52.8909ZM296.677 52.7661L290.427 52.5005L290.385 53.4995L296.635 53.7652L296.677 52.7661ZM302.031 41.0625H302.844V40.0625H302.031V41.0625ZM302.844 41.0625C304.876 41.0625 306.595 40.4603 307.96 39.2309L307.29 38.4879C306.134 39.5293 304.665 40.0625 302.844 40.0625V41.0625ZM307.961 39.2293C309.329 37.9858 310.016 36.4021 310.016 34.5156H309.016C309.016 36.1291 308.442 37.4412 307.289 38.4894L307.961 39.2293ZM310.016 34.5156C310.016 33.1553 309.531 32.068 308.517 31.3433C307.535 30.6407 306.123 30.3281 304.359 30.3281V31.3281C306.034 31.3281 307.199 31.6302 307.936 32.1567C308.641 32.6611 309.016 33.4176 309.016 34.5156H310.016ZM304.359 30.3281H303.969V31.3281H304.359V30.3281ZM303.478 30.7305L301.541 40.4649L302.522 40.6601L304.459 30.9257L303.478 30.7305ZM296.111 51.457L297.736 51.8163L297.952 50.8399L296.327 50.4805L296.111 51.457ZM297.738 51.8169C299.369 52.1687 301.082 52.3438 302.875 52.3438V51.3438C301.147 51.3438 299.506 51.1751 297.949 50.8394L297.738 51.8169ZM302.875 52.3438C304.735 52.3438 306.224 51.9104 307.247 50.9554C308.277 49.9943 308.75 48.5863 308.75 46.8281H307.75C307.75 48.4137 307.327 49.5135 306.565 50.2243C305.797 50.9411 304.598 51.3438 302.875 51.3438V52.3438ZM308.75 46.8281C308.75 45.0721 308.168 43.6392 306.97 42.5922L306.312 43.3453C307.259 44.1733 307.75 45.3133 307.75 46.8281H308.75ZM306.973 42.5957C305.795 41.5443 304.211 41.0469 302.281 41.0469V42.0469C304.039 42.0469 305.361 42.4974 306.308 43.3418L306.973 42.5957ZM302.281 41.0469H301.828V42.0469H302.281V41.0469ZM301.337 41.4505L300.994 43.2005L301.975 43.3932L302.319 41.6432L301.337 41.4505ZM300.994 43.1982C300.333 46.4862 298.656 48.9194 295.961 50.5403L296.476 51.3972C299.427 49.6223 301.261 46.9409 301.975 43.3955L300.994 43.1982ZM313.703 51.6875L313.348 51.3353L312.978 51.7087L313.369 52.0598L313.703 51.6875ZM315.812 49.5625L316.232 49.2898L315.894 48.7708L315.458 49.2103L315.812 49.5625ZM324.016 49.9375L324.359 50.3008L324.359 50.3007L324.016 49.9375ZM328.859 43.1406L328.427 42.89L328.426 42.8908L328.859 43.1406ZM335.594 31.5156L336.026 31.7663L336.407 31.1091L335.653 31.0191L335.594 31.5156ZM327.625 32.9531L327.964 33.321L327.964 33.3209L327.625 32.9531ZM325.859 37.6094L326.081 38.0575L326.359 37.9198V37.6094H325.859ZM322.797 39.125L322.299 39.0747L322.209 39.9741L323.019 39.5731L322.797 39.125ZM324.438 34.2656L324.847 34.5521L324.848 34.5505L324.438 34.2656ZM333.781 30.0469L333.751 29.5478L333.747 29.5481L333.781 30.0469ZM336.094 29.875L336.134 30.3734L336.159 30.3714L336.183 30.367L336.094 29.875ZM339.281 29.2969L339.781 29.2774L339.758 28.7022L339.192 28.8049L339.281 29.2969ZM339.484 34.5L338.985 34.5195L338.985 34.5307L338.986 34.5418L339.484 34.5ZM340.391 45.2969L340.889 45.2555L340.889 45.2551L340.391 45.2969ZM341.266 50.2656L340.813 50.4774L340.816 50.4845L341.266 50.2656ZM345.156 51.3594L345.647 51.456L345.772 50.8215L345.126 50.8603L345.156 51.3594ZM344.953 52.3906L345.035 52.8839L345.377 52.8273L345.444 52.4873L344.953 52.3906ZM337.781 53.5781L337.283 53.6196L337.328 54.16L337.863 54.0714L337.781 53.5781ZM337.141 45.875L337.639 45.8336L337.601 45.375H337.141V45.875ZM328.625 45.875V45.375H328.336L328.192 45.6252L328.625 45.875ZM323.953 51.875L324.259 52.2706L324.261 52.2692L323.953 51.875ZM329.297 44.7188L328.863 44.4699L328.433 45.2188H329.297V44.7188ZM337.031 44.7188V45.2188H337.576L337.529 44.6763L337.031 44.7188ZM336.031 32.9844L336.529 32.9419L336.394 31.3484L335.598 32.7355L336.031 32.9844ZM314.058 52.0397L316.167 49.9147L315.458 49.2103L313.348 51.3353L314.058 52.0397ZM315.393 49.8352C316.461 51.476 317.905 52.3438 319.703 52.3438V51.3438C318.293 51.3438 317.143 50.6907 316.232 49.2898L315.393 49.8352ZM319.703 52.3438C321.388 52.3438 322.943 51.6401 324.359 50.3008L323.672 49.5742C322.401 50.7766 321.081 51.3438 319.703 51.3438V52.3438ZM324.359 50.3007C325.769 48.9673 327.413 46.649 329.292 43.3905L328.426 42.8908C326.556 46.1322 324.971 48.3452 323.672 49.5743L324.359 50.3007ZM329.292 43.3913L336.026 31.7663L335.161 31.265L328.427 42.89L329.292 43.3913ZM335.653 31.0191C334.505 30.8822 333.51 30.8125 332.672 30.8125V31.8125C333.458 31.8125 334.412 31.8782 335.535 32.0121L335.653 31.0191ZM332.672 30.8125C330.414 30.8125 328.594 31.3806 327.286 32.5854L327.964 33.3209C329.031 32.3381 330.576 31.8125 332.672 31.8125V30.8125ZM327.286 32.5852C325.981 33.7869 325.359 35.488 325.359 37.6094H326.359C326.359 35.6891 326.915 34.286 327.964 33.321L327.286 32.5852ZM325.638 37.1613L322.575 38.6769L323.019 39.5731L326.081 38.0575L325.638 37.1613ZM323.294 39.1753C323.486 37.2803 324.011 35.7475 324.847 34.5521L324.028 33.9791C323.072 35.3462 322.504 37.0531 322.299 39.0747L323.294 39.1753ZM324.848 34.5505C325.796 33.1847 326.895 32.2355 328.143 31.6748L327.732 30.7627C326.292 31.4104 325.059 32.4924 324.027 33.9807L324.848 34.5505ZM328.143 31.6748C329.407 31.1063 331.286 30.7212 333.816 30.5457L333.747 29.5481C331.172 29.7267 329.156 30.1228 327.732 30.7627L328.143 31.6748ZM333.812 30.5459C334.327 30.5144 335.102 30.4568 336.134 30.3734L336.053 29.3766C335.023 29.4599 334.256 29.5169 333.751 29.5478L333.812 30.5459ZM336.183 30.367L339.37 29.7888L339.192 28.8049L336.005 29.383L336.183 30.367ZM338.782 29.3164L338.985 34.5195L339.984 34.4805L339.781 29.2774L338.782 29.3164ZM338.986 34.5418L339.892 45.3387L340.889 45.2551L339.983 34.4582L338.986 34.5418ZM339.892 45.3382C339.997 46.602 340.124 47.66 340.273 48.5086C340.421 49.3486 340.597 50.0155 340.813 50.4774L341.719 50.0539C341.56 49.7137 341.402 49.1514 341.258 48.3352C341.116 47.5275 340.992 46.5022 340.889 45.2555L339.892 45.3382ZM340.816 50.4845C341.048 50.9599 341.381 51.3364 341.821 51.5896C342.257 51.8407 342.767 51.9531 343.328 51.9531V50.9531C342.899 50.9531 342.571 50.8676 342.32 50.7229C342.072 50.5803 341.869 50.363 341.715 50.0468L340.816 50.4845ZM343.328 51.9531C343.524 51.9531 344.154 51.9204 345.186 51.8585L345.126 50.8603C344.075 50.9233 343.486 50.9531 343.328 50.9531V51.9531ZM344.666 51.2627L344.463 52.294L345.444 52.4873L345.647 51.456L344.666 51.2627ZM344.871 51.8973L337.7 53.0848L337.863 54.0714L345.035 52.8839L344.871 51.8973ZM338.28 53.5367L337.639 45.8336L336.642 45.9164L337.283 53.6196L338.28 53.5367ZM337.141 45.375H328.625V46.375H337.141V45.375ZM328.192 45.6252C326.557 48.4598 325.039 50.394 323.646 51.4808L324.261 52.2692C325.805 51.0643 327.401 48.9985 329.058 46.1248L328.192 45.6252ZM323.647 51.4794C322.275 52.5407 320.635 53.0781 318.703 53.0781V54.0781C320.834 54.0781 322.694 53.4802 324.259 52.2706L323.647 51.4794ZM318.703 53.0781C316.896 53.0781 315.349 52.4915 314.037 51.3152L313.369 52.0598C314.869 53.4043 316.656 54.0781 318.703 54.0781V53.0781ZM329.297 45.2188H337.031V44.2188H329.297V45.2188ZM337.529 44.6763L336.529 32.9419L335.533 33.0268L336.533 44.7612L337.529 44.6763ZM335.598 32.7355L328.863 44.4699L329.731 44.9676L336.465 33.2333L335.598 32.7355ZM341.641 55.9219L341.285 55.5709L340.912 55.9486L341.311 56.298L341.641 55.9219ZM343.781 53.75L344.234 53.5387L343.93 52.8865L343.425 53.399L343.781 53.75ZM351.188 55.2812L350.787 54.9819L350.785 54.9846L351.188 55.2812ZM353.016 50.2188L353.506 50.3172L353.506 50.3161L353.016 50.2188ZM356.594 32.1875L357.084 32.2848L357.203 31.6875H356.594V32.1875ZM352.422 32.1875L352.06 31.8426L351.255 32.6875H352.422V32.1875ZM354.625 29.875V29.375H354.411L354.263 29.5301L354.625 29.875ZM364.688 29.875L365.034 30.2355L365.929 29.375H364.688V29.875ZM362.281 32.1875V32.6875H362.483L362.628 32.548L362.281 32.1875ZM359.875 32.1875V31.6875H359.465L359.385 32.0899L359.875 32.1875ZM356.828 47.5L357.318 47.5983L357.319 47.5976L356.828 47.5ZM353.25 55.2812L352.886 54.9383L352.885 54.9394L353.25 55.2812ZM341.997 56.2729L344.137 54.101L343.425 53.399L341.285 55.5709L341.997 56.2729ZM343.328 53.9613C343.825 55.0266 344.474 55.8585 345.29 56.4229C346.109 56.9899 347.067 57.2656 348.141 57.2656V56.2656C347.246 56.2656 346.492 56.0388 345.859 55.6005C345.222 55.1598 344.675 54.4838 344.234 53.5387L343.328 53.9613ZM348.141 57.2656C349.591 57.2656 350.76 56.704 351.59 55.5779L350.785 54.9846C350.156 55.8377 349.295 56.2656 348.141 56.2656V57.2656ZM351.588 55.5806C352.397 54.4979 353.024 52.7182 353.506 50.3172L352.525 50.1203C352.049 52.4901 351.457 54.0854 350.787 54.9819L351.588 55.5806ZM353.506 50.3161L357.084 32.2848L356.103 32.0902L352.525 50.1214L353.506 50.3161ZM356.594 31.6875H352.422V32.6875H356.594V31.6875ZM352.784 32.5324L354.987 30.2199L354.263 29.5301L352.06 31.8426L352.784 32.5324ZM354.625 30.375H364.688V29.375H354.625V30.375ZM364.341 29.5145L361.935 31.827L362.628 32.548L365.034 30.2355L364.341 29.5145ZM362.281 31.6875H359.875V32.6875H362.281V31.6875ZM359.385 32.0899L356.338 47.4024L357.319 47.5976L360.365 32.2851L359.385 32.0899ZM356.338 47.4017C355.672 50.7186 354.51 53.2152 352.886 54.9383L353.614 55.6242C355.406 53.7223 356.63 51.0314 357.318 47.5983L356.338 47.4017ZM352.885 54.9394C351.271 56.6613 349.299 57.5156 346.938 57.5156V58.5156C349.576 58.5156 351.812 57.547 353.615 55.6231L352.885 54.9394ZM346.938 57.5156C345.133 57.5156 343.482 56.8698 341.97 55.5457L341.311 56.298C342.987 57.7656 344.867 58.5156 346.938 58.5156V57.5156ZM361.891 51.6875L361.536 51.3353L361.165 51.7087L361.557 52.0598L361.891 51.6875ZM364 49.5625L364.419 49.2898L364.081 48.7708L363.645 49.2103L364 49.5625ZM372.203 49.9375L372.547 50.3008L372.547 50.3007L372.203 49.9375ZM377.047 43.1406L376.614 42.89L376.614 42.8908L377.047 43.1406ZM383.781 31.5156L384.214 31.7663L384.595 31.1091L383.84 31.0191L383.781 31.5156ZM375.812 32.9531L376.151 33.321L376.151 33.3209L375.812 32.9531ZM374.047 37.6094L374.269 38.0575L374.547 37.9198V37.6094H374.047ZM370.984 39.125L370.487 39.0747L370.396 39.9741L371.206 39.5731L370.984 39.125ZM372.625 34.2656L373.035 34.5521L373.036 34.5505L372.625 34.2656ZM381.969 30.0469L381.938 29.5478L381.934 29.5481L381.969 30.0469ZM384.281 29.875L384.322 30.3734L384.346 30.3714L384.37 30.367L384.281 29.875ZM387.469 29.2969L387.968 29.2774L387.946 28.7022L387.38 28.8049L387.469 29.2969ZM387.672 34.5L387.172 34.5195L387.173 34.5307L387.174 34.5418L387.672 34.5ZM388.578 45.2969L389.076 45.2555L389.076 45.2551L388.578 45.2969ZM389.453 50.2656L389 50.4774L389.004 50.4845L389.453 50.2656ZM393.344 51.3594L393.834 51.456L393.959 50.8215L393.314 50.8603L393.344 51.3594ZM393.141 52.3906L393.222 52.8839L393.564 52.8273L393.631 52.4873L393.141 52.3906ZM385.969 53.5781L385.47 53.6196L385.515 54.16L386.05 54.0714L385.969 53.5781ZM385.328 45.875L385.826 45.8336L385.788 45.375H385.328V45.875ZM376.812 45.875V45.375H376.524L376.379 45.6252L376.812 45.875ZM372.141 51.875L372.446 52.2706L372.448 52.2692L372.141 51.875ZM377.484 44.7188L377.051 44.4699L376.621 45.2188H377.484V44.7188ZM385.219 44.7188V45.2188H385.763L385.717 44.6763L385.219 44.7188ZM384.219 32.9844L384.717 32.9419L384.581 31.3484L383.785 32.7355L384.219 32.9844ZM362.245 52.0397L364.355 49.9147L363.645 49.2103L361.536 51.3353L362.245 52.0397ZM363.581 49.8352C364.649 51.476 366.093 52.3438 367.891 52.3438V51.3438C366.48 51.3438 365.331 50.6907 364.419 49.2898L363.581 49.8352ZM367.891 52.3438C369.575 52.3438 371.131 51.6401 372.547 50.3008L371.86 49.5742C370.588 50.7766 369.268 51.3438 367.891 51.3438V52.3438ZM372.547 50.3007C373.956 48.9673 375.6 46.649 377.48 43.3905L376.614 42.8908C374.744 46.1322 373.159 48.3452 371.859 49.5743L372.547 50.3007ZM377.48 43.3913L384.214 31.7663L383.349 31.265L376.614 42.89L377.48 43.3913ZM383.84 31.0191C382.693 30.8822 381.698 30.8125 380.859 30.8125V31.8125C381.646 31.8125 382.599 31.8782 383.722 32.0121L383.84 31.0191ZM380.859 30.8125C378.601 30.8125 376.782 31.3806 375.474 32.5854L376.151 33.3209C377.218 32.3381 378.763 31.8125 380.859 31.8125V30.8125ZM375.474 32.5852C374.168 33.7869 373.547 35.488 373.547 37.6094H374.547C374.547 35.6891 375.103 34.286 376.151 33.321L375.474 32.5852ZM373.825 37.1613L370.763 38.6769L371.206 39.5731L374.269 38.0575L373.825 37.1613ZM371.482 39.1753C371.673 37.2803 372.199 35.7475 373.035 34.5521L372.215 33.9791C371.259 35.3462 370.691 37.0531 370.487 39.0747L371.482 39.1753ZM373.036 34.5505C373.983 33.1847 375.083 32.2355 376.33 31.6748L375.92 30.7627C374.48 31.4104 373.246 32.4924 372.214 33.9807L373.036 34.5505ZM376.33 31.6748C377.594 31.1063 379.473 30.7212 382.003 30.5457L381.934 29.5481C379.36 29.7267 377.343 30.1228 375.92 30.7627L376.33 31.6748ZM381.999 30.5459C382.515 30.5144 383.29 30.4568 384.322 30.3734L384.241 29.3766C383.21 29.4599 382.444 29.5169 381.938 29.5478L381.999 30.5459ZM384.37 30.367L387.558 29.7888L387.38 28.8049L384.192 29.383L384.37 30.367ZM386.969 29.3164L387.172 34.5195L388.172 34.4805L387.968 29.2774L386.969 29.3164ZM387.174 34.5418L388.08 45.3387L389.076 45.2551L388.17 34.4582L387.174 34.5418ZM388.08 45.3382C388.185 46.602 388.311 47.66 388.461 48.5086C388.609 49.3486 388.784 50.0155 389 50.4774L389.906 50.0539C389.747 49.7137 389.589 49.1514 389.446 48.3352C389.303 47.5275 389.18 46.5022 389.076 45.2555L388.08 45.3382ZM389.004 50.4845C389.235 50.9599 389.569 51.3364 390.008 51.5896C390.445 51.8407 390.955 51.9531 391.516 51.9531V50.9531C391.087 50.9531 390.759 50.8676 390.507 50.7229C390.26 50.5803 390.057 50.363 389.903 50.0468L389.004 50.4845ZM391.516 51.9531C391.712 51.9531 392.341 51.9204 393.374 51.8585L393.314 50.8603C392.263 50.9233 391.674 50.9531 391.516 50.9531V51.9531ZM392.853 51.2627L392.65 52.294L393.631 52.4873L393.834 51.456L392.853 51.2627ZM393.059 51.8973L385.887 53.0848L386.05 54.0714L393.222 52.8839L393.059 51.8973ZM386.467 53.5367L385.826 45.8336L384.83 45.9164L385.47 53.6196L386.467 53.5367ZM385.328 45.375H376.812V46.375H385.328V45.375ZM376.379 45.6252C374.745 48.4598 373.226 50.394 371.833 51.4808L372.448 52.2692C373.993 51.0643 375.589 48.9985 377.246 46.1248L376.379 45.6252ZM371.835 51.4794C370.462 52.5407 368.822 53.0781 366.891 53.0781V54.0781C369.022 54.0781 370.882 53.4802 372.446 52.2706L371.835 51.4794ZM366.891 53.0781C365.084 53.0781 363.537 52.4915 362.224 51.3152L361.557 52.0598C363.057 53.4043 364.843 54.0781 366.891 54.0781V53.0781ZM377.484 45.2188H385.219V44.2188H377.484V45.2188ZM385.717 44.6763L384.717 32.9419L383.721 33.0268L384.721 44.7612L385.717 44.6763ZM383.785 32.7355L377.051 44.4699L377.918 44.9676L384.652 33.2333L383.785 32.7355Z" fill="black"/>
<defs>
<filter id="filter0_i_12_259" x="38.2812" y="27.9375" width="355.062" height="39.4688" filterUnits="userSpaceOnUse" color-interpolation-filters="sRGB">
<feFlood flood-opacity="0" result="BackgroundImageFix"/>
<feBlend mode="normal" in="SourceGraphic" in2="BackgroundImageFix" result="shape"/>
<feColorMatrix in="SourceAlpha" type="matrix" values="0 0 0 0 0 0 0 0 0 0 0 0 0 0 0 0 0 0 127 0" result="hardAlpha"/>
<feOffset dy="4"/>
<feGaussianBlur stdDeviation="2"/>
<feComposite in2="hardAlpha" operator="arithmetic" k2="-1" k3="1"/>
<feColorMatrix type="matrix" values="0 0 0 0 0 0 0 0 0 0 0 0 0 0 0 0 0 0 0.25 0"/>
<feBlend mode="normal" in2="shape" result="effect1_innerShadow_12_259"/>
</filter>
</defs>
</svg>
